%TF.GenerationSoftware,KiCad,Pcbnew,7.0.8-1.fc38*%
%TF.CreationDate,2023-10-12T23:26:15-06:00*%
%TF.ProjectId,lightPCBV1.1,6c696768-7450-4434-9256-312e312e6b69,rev?*%
%TF.SameCoordinates,Original*%
%TF.FileFunction,Legend,Top*%
%TF.FilePolarity,Positive*%
%FSLAX46Y46*%
G04 Gerber Fmt 4.6, Leading zero omitted, Abs format (unit mm)*
G04 Created by KiCad (PCBNEW 7.0.8-1.fc38) date 2023-10-12 23:26:15*
%MOMM*%
%LPD*%
G01*
G04 APERTURE LIST*
%ADD10C,0.300000*%
%ADD11C,0.150000*%
%ADD12C,0.120000*%
%ADD13C,0.152400*%
G04 APERTURE END LIST*
D10*
X131264510Y-93885828D02*
X131264510Y-92385828D01*
X131264510Y-92957257D02*
X131407368Y-92885828D01*
X131407368Y-92885828D02*
X131693082Y-92885828D01*
X131693082Y-92885828D02*
X131835939Y-92957257D01*
X131835939Y-92957257D02*
X131907368Y-93028685D01*
X131907368Y-93028685D02*
X131978796Y-93171542D01*
X131978796Y-93171542D02*
X131978796Y-93600114D01*
X131978796Y-93600114D02*
X131907368Y-93742971D01*
X131907368Y-93742971D02*
X131835939Y-93814400D01*
X131835939Y-93814400D02*
X131693082Y-93885828D01*
X131693082Y-93885828D02*
X131407368Y-93885828D01*
X131407368Y-93885828D02*
X131264510Y-93814400D01*
X132621653Y-93885828D02*
X132621653Y-92385828D01*
X132764511Y-93314400D02*
X133193082Y-93885828D01*
X133193082Y-92885828D02*
X132621653Y-93457257D01*
X133835939Y-92885828D02*
X133835939Y-94385828D01*
X133835939Y-92957257D02*
X133978797Y-92885828D01*
X133978797Y-92885828D02*
X134264511Y-92885828D01*
X134264511Y-92885828D02*
X134407368Y-92957257D01*
X134407368Y-92957257D02*
X134478797Y-93028685D01*
X134478797Y-93028685D02*
X134550225Y-93171542D01*
X134550225Y-93171542D02*
X134550225Y-93600114D01*
X134550225Y-93600114D02*
X134478797Y-93742971D01*
X134478797Y-93742971D02*
X134407368Y-93814400D01*
X134407368Y-93814400D02*
X134264511Y-93885828D01*
X134264511Y-93885828D02*
X133978797Y-93885828D01*
X133978797Y-93885828D02*
X133835939Y-93814400D01*
X135907368Y-92385828D02*
X135193082Y-92385828D01*
X135193082Y-92385828D02*
X135121654Y-93100114D01*
X135121654Y-93100114D02*
X135193082Y-93028685D01*
X135193082Y-93028685D02*
X135335940Y-92957257D01*
X135335940Y-92957257D02*
X135693082Y-92957257D01*
X135693082Y-92957257D02*
X135835940Y-93028685D01*
X135835940Y-93028685D02*
X135907368Y-93100114D01*
X135907368Y-93100114D02*
X135978797Y-93242971D01*
X135978797Y-93242971D02*
X135978797Y-93600114D01*
X135978797Y-93600114D02*
X135907368Y-93742971D01*
X135907368Y-93742971D02*
X135835940Y-93814400D01*
X135835940Y-93814400D02*
X135693082Y-93885828D01*
X135693082Y-93885828D02*
X135335940Y-93885828D01*
X135335940Y-93885828D02*
X135193082Y-93814400D01*
X135193082Y-93814400D02*
X135121654Y-93742971D01*
X137407368Y-93885828D02*
X136550225Y-93885828D01*
X136978796Y-93885828D02*
X136978796Y-92385828D01*
X136978796Y-92385828D02*
X136835939Y-92600114D01*
X136835939Y-92600114D02*
X136693082Y-92742971D01*
X136693082Y-92742971D02*
X136550225Y-92814400D01*
X138764510Y-92385828D02*
X138050224Y-92385828D01*
X138050224Y-92385828D02*
X137978796Y-93100114D01*
X137978796Y-93100114D02*
X138050224Y-93028685D01*
X138050224Y-93028685D02*
X138193082Y-92957257D01*
X138193082Y-92957257D02*
X138550224Y-92957257D01*
X138550224Y-92957257D02*
X138693082Y-93028685D01*
X138693082Y-93028685D02*
X138764510Y-93100114D01*
X138764510Y-93100114D02*
X138835939Y-93242971D01*
X138835939Y-93242971D02*
X138835939Y-93600114D01*
X138835939Y-93600114D02*
X138764510Y-93742971D01*
X138764510Y-93742971D02*
X138693082Y-93814400D01*
X138693082Y-93814400D02*
X138550224Y-93885828D01*
X138550224Y-93885828D02*
X138193082Y-93885828D01*
X138193082Y-93885828D02*
X138050224Y-93814400D01*
X138050224Y-93814400D02*
X137978796Y-93742971D01*
X131978796Y-96300828D02*
X131264510Y-96300828D01*
X131264510Y-96300828D02*
X131264510Y-94800828D01*
X132478796Y-96300828D02*
X132478796Y-95300828D01*
X132478796Y-94800828D02*
X132407368Y-94872257D01*
X132407368Y-94872257D02*
X132478796Y-94943685D01*
X132478796Y-94943685D02*
X132550225Y-94872257D01*
X132550225Y-94872257D02*
X132478796Y-94800828D01*
X132478796Y-94800828D02*
X132478796Y-94943685D01*
X133835940Y-95300828D02*
X133835940Y-96515114D01*
X133835940Y-96515114D02*
X133764511Y-96657971D01*
X133764511Y-96657971D02*
X133693082Y-96729400D01*
X133693082Y-96729400D02*
X133550225Y-96800828D01*
X133550225Y-96800828D02*
X133335940Y-96800828D01*
X133335940Y-96800828D02*
X133193082Y-96729400D01*
X133835940Y-96229400D02*
X133693082Y-96300828D01*
X133693082Y-96300828D02*
X133407368Y-96300828D01*
X133407368Y-96300828D02*
X133264511Y-96229400D01*
X133264511Y-96229400D02*
X133193082Y-96157971D01*
X133193082Y-96157971D02*
X133121654Y-96015114D01*
X133121654Y-96015114D02*
X133121654Y-95586542D01*
X133121654Y-95586542D02*
X133193082Y-95443685D01*
X133193082Y-95443685D02*
X133264511Y-95372257D01*
X133264511Y-95372257D02*
X133407368Y-95300828D01*
X133407368Y-95300828D02*
X133693082Y-95300828D01*
X133693082Y-95300828D02*
X133835940Y-95372257D01*
X134550225Y-96300828D02*
X134550225Y-94800828D01*
X135193083Y-96300828D02*
X135193083Y-95515114D01*
X135193083Y-95515114D02*
X135121654Y-95372257D01*
X135121654Y-95372257D02*
X134978797Y-95300828D01*
X134978797Y-95300828D02*
X134764511Y-95300828D01*
X134764511Y-95300828D02*
X134621654Y-95372257D01*
X134621654Y-95372257D02*
X134550225Y-95443685D01*
X135693083Y-95300828D02*
X136264511Y-95300828D01*
X135907368Y-94800828D02*
X135907368Y-96086542D01*
X135907368Y-96086542D02*
X135978797Y-96229400D01*
X135978797Y-96229400D02*
X136121654Y-96300828D01*
X136121654Y-96300828D02*
X136264511Y-96300828D01*
X136764511Y-96300828D02*
X136764511Y-94800828D01*
X136764511Y-94800828D02*
X137335940Y-94800828D01*
X137335940Y-94800828D02*
X137478797Y-94872257D01*
X137478797Y-94872257D02*
X137550226Y-94943685D01*
X137550226Y-94943685D02*
X137621654Y-95086542D01*
X137621654Y-95086542D02*
X137621654Y-95300828D01*
X137621654Y-95300828D02*
X137550226Y-95443685D01*
X137550226Y-95443685D02*
X137478797Y-95515114D01*
X137478797Y-95515114D02*
X137335940Y-95586542D01*
X137335940Y-95586542D02*
X136764511Y-95586542D01*
X139121654Y-96157971D02*
X139050226Y-96229400D01*
X139050226Y-96229400D02*
X138835940Y-96300828D01*
X138835940Y-96300828D02*
X138693083Y-96300828D01*
X138693083Y-96300828D02*
X138478797Y-96229400D01*
X138478797Y-96229400D02*
X138335940Y-96086542D01*
X138335940Y-96086542D02*
X138264511Y-95943685D01*
X138264511Y-95943685D02*
X138193083Y-95657971D01*
X138193083Y-95657971D02*
X138193083Y-95443685D01*
X138193083Y-95443685D02*
X138264511Y-95157971D01*
X138264511Y-95157971D02*
X138335940Y-95015114D01*
X138335940Y-95015114D02*
X138478797Y-94872257D01*
X138478797Y-94872257D02*
X138693083Y-94800828D01*
X138693083Y-94800828D02*
X138835940Y-94800828D01*
X138835940Y-94800828D02*
X139050226Y-94872257D01*
X139050226Y-94872257D02*
X139121654Y-94943685D01*
X140264511Y-95515114D02*
X140478797Y-95586542D01*
X140478797Y-95586542D02*
X140550226Y-95657971D01*
X140550226Y-95657971D02*
X140621654Y-95800828D01*
X140621654Y-95800828D02*
X140621654Y-96015114D01*
X140621654Y-96015114D02*
X140550226Y-96157971D01*
X140550226Y-96157971D02*
X140478797Y-96229400D01*
X140478797Y-96229400D02*
X140335940Y-96300828D01*
X140335940Y-96300828D02*
X139764511Y-96300828D01*
X139764511Y-96300828D02*
X139764511Y-94800828D01*
X139764511Y-94800828D02*
X140264511Y-94800828D01*
X140264511Y-94800828D02*
X140407369Y-94872257D01*
X140407369Y-94872257D02*
X140478797Y-94943685D01*
X140478797Y-94943685D02*
X140550226Y-95086542D01*
X140550226Y-95086542D02*
X140550226Y-95229400D01*
X140550226Y-95229400D02*
X140478797Y-95372257D01*
X140478797Y-95372257D02*
X140407369Y-95443685D01*
X140407369Y-95443685D02*
X140264511Y-95515114D01*
X140264511Y-95515114D02*
X139764511Y-95515114D01*
X141050226Y-94800828D02*
X141550226Y-96300828D01*
X141550226Y-96300828D02*
X142050226Y-94800828D01*
X143335940Y-96300828D02*
X142478797Y-96300828D01*
X142907368Y-96300828D02*
X142907368Y-94800828D01*
X142907368Y-94800828D02*
X142764511Y-95015114D01*
X142764511Y-95015114D02*
X142621654Y-95157971D01*
X142621654Y-95157971D02*
X142478797Y-95229400D01*
X143978796Y-96157971D02*
X144050225Y-96229400D01*
X144050225Y-96229400D02*
X143978796Y-96300828D01*
X143978796Y-96300828D02*
X143907368Y-96229400D01*
X143907368Y-96229400D02*
X143978796Y-96157971D01*
X143978796Y-96157971D02*
X143978796Y-96300828D01*
X145478797Y-96300828D02*
X144621654Y-96300828D01*
X145050225Y-96300828D02*
X145050225Y-94800828D01*
X145050225Y-94800828D02*
X144907368Y-95015114D01*
X144907368Y-95015114D02*
X144764511Y-95157971D01*
X144764511Y-95157971D02*
X144621654Y-95229400D01*
D11*
X158767142Y-91134819D02*
X158433809Y-90658628D01*
X158195714Y-91134819D02*
X158195714Y-90134819D01*
X158195714Y-90134819D02*
X158576666Y-90134819D01*
X158576666Y-90134819D02*
X158671904Y-90182438D01*
X158671904Y-90182438D02*
X158719523Y-90230057D01*
X158719523Y-90230057D02*
X158767142Y-90325295D01*
X158767142Y-90325295D02*
X158767142Y-90468152D01*
X158767142Y-90468152D02*
X158719523Y-90563390D01*
X158719523Y-90563390D02*
X158671904Y-90611009D01*
X158671904Y-90611009D02*
X158576666Y-90658628D01*
X158576666Y-90658628D02*
X158195714Y-90658628D01*
X159719523Y-91134819D02*
X159148095Y-91134819D01*
X159433809Y-91134819D02*
X159433809Y-90134819D01*
X159433809Y-90134819D02*
X159338571Y-90277676D01*
X159338571Y-90277676D02*
X159243333Y-90372914D01*
X159243333Y-90372914D02*
X159148095Y-90420533D01*
X160624285Y-90134819D02*
X160148095Y-90134819D01*
X160148095Y-90134819D02*
X160100476Y-90611009D01*
X160100476Y-90611009D02*
X160148095Y-90563390D01*
X160148095Y-90563390D02*
X160243333Y-90515771D01*
X160243333Y-90515771D02*
X160481428Y-90515771D01*
X160481428Y-90515771D02*
X160576666Y-90563390D01*
X160576666Y-90563390D02*
X160624285Y-90611009D01*
X160624285Y-90611009D02*
X160671904Y-90706247D01*
X160671904Y-90706247D02*
X160671904Y-90944342D01*
X160671904Y-90944342D02*
X160624285Y-91039580D01*
X160624285Y-91039580D02*
X160576666Y-91087200D01*
X160576666Y-91087200D02*
X160481428Y-91134819D01*
X160481428Y-91134819D02*
X160243333Y-91134819D01*
X160243333Y-91134819D02*
X160148095Y-91087200D01*
X160148095Y-91087200D02*
X160100476Y-91039580D01*
X157767143Y-93870057D02*
X157814762Y-93822438D01*
X157814762Y-93822438D02*
X157910000Y-93774819D01*
X157910000Y-93774819D02*
X158148095Y-93774819D01*
X158148095Y-93774819D02*
X158243333Y-93822438D01*
X158243333Y-93822438D02*
X158290952Y-93870057D01*
X158290952Y-93870057D02*
X158338571Y-93965295D01*
X158338571Y-93965295D02*
X158338571Y-94060533D01*
X158338571Y-94060533D02*
X158290952Y-94203390D01*
X158290952Y-94203390D02*
X157719524Y-94774819D01*
X157719524Y-94774819D02*
X158338571Y-94774819D01*
X159529048Y-94774819D02*
X159529048Y-93774819D01*
X159624286Y-94393866D02*
X159910000Y-94774819D01*
X159910000Y-94108152D02*
X159529048Y-94489104D01*
X160290953Y-94774819D02*
X160529048Y-94774819D01*
X160529048Y-94774819D02*
X160529048Y-94584342D01*
X160529048Y-94584342D02*
X160433810Y-94536723D01*
X160433810Y-94536723D02*
X160338572Y-94441485D01*
X160338572Y-94441485D02*
X160290953Y-94298628D01*
X160290953Y-94298628D02*
X160290953Y-94060533D01*
X160290953Y-94060533D02*
X160338572Y-93917676D01*
X160338572Y-93917676D02*
X160433810Y-93822438D01*
X160433810Y-93822438D02*
X160576667Y-93774819D01*
X160576667Y-93774819D02*
X160767143Y-93774819D01*
X160767143Y-93774819D02*
X160910000Y-93822438D01*
X160910000Y-93822438D02*
X161005238Y-93917676D01*
X161005238Y-93917676D02*
X161052857Y-94060533D01*
X161052857Y-94060533D02*
X161052857Y-94298628D01*
X161052857Y-94298628D02*
X161005238Y-94441485D01*
X161005238Y-94441485D02*
X160910000Y-94536723D01*
X160910000Y-94536723D02*
X160814762Y-94584342D01*
X160814762Y-94584342D02*
X160814762Y-94774819D01*
X160814762Y-94774819D02*
X161052857Y-94774819D01*
X158767142Y-86234819D02*
X158433809Y-85758628D01*
X158195714Y-86234819D02*
X158195714Y-85234819D01*
X158195714Y-85234819D02*
X158576666Y-85234819D01*
X158576666Y-85234819D02*
X158671904Y-85282438D01*
X158671904Y-85282438D02*
X158719523Y-85330057D01*
X158719523Y-85330057D02*
X158767142Y-85425295D01*
X158767142Y-85425295D02*
X158767142Y-85568152D01*
X158767142Y-85568152D02*
X158719523Y-85663390D01*
X158719523Y-85663390D02*
X158671904Y-85711009D01*
X158671904Y-85711009D02*
X158576666Y-85758628D01*
X158576666Y-85758628D02*
X158195714Y-85758628D01*
X159719523Y-86234819D02*
X159148095Y-86234819D01*
X159433809Y-86234819D02*
X159433809Y-85234819D01*
X159433809Y-85234819D02*
X159338571Y-85377676D01*
X159338571Y-85377676D02*
X159243333Y-85472914D01*
X159243333Y-85472914D02*
X159148095Y-85520533D01*
X160576666Y-85568152D02*
X160576666Y-86234819D01*
X160338571Y-85187200D02*
X160100476Y-85901485D01*
X160100476Y-85901485D02*
X160719523Y-85901485D01*
X157767143Y-88970057D02*
X157814762Y-88922438D01*
X157814762Y-88922438D02*
X157910000Y-88874819D01*
X157910000Y-88874819D02*
X158148095Y-88874819D01*
X158148095Y-88874819D02*
X158243333Y-88922438D01*
X158243333Y-88922438D02*
X158290952Y-88970057D01*
X158290952Y-88970057D02*
X158338571Y-89065295D01*
X158338571Y-89065295D02*
X158338571Y-89160533D01*
X158338571Y-89160533D02*
X158290952Y-89303390D01*
X158290952Y-89303390D02*
X157719524Y-89874819D01*
X157719524Y-89874819D02*
X158338571Y-89874819D01*
X159529048Y-89874819D02*
X159529048Y-88874819D01*
X159624286Y-89493866D02*
X159910000Y-89874819D01*
X159910000Y-89208152D02*
X159529048Y-89589104D01*
X160290953Y-89874819D02*
X160529048Y-89874819D01*
X160529048Y-89874819D02*
X160529048Y-89684342D01*
X160529048Y-89684342D02*
X160433810Y-89636723D01*
X160433810Y-89636723D02*
X160338572Y-89541485D01*
X160338572Y-89541485D02*
X160290953Y-89398628D01*
X160290953Y-89398628D02*
X160290953Y-89160533D01*
X160290953Y-89160533D02*
X160338572Y-89017676D01*
X160338572Y-89017676D02*
X160433810Y-88922438D01*
X160433810Y-88922438D02*
X160576667Y-88874819D01*
X160576667Y-88874819D02*
X160767143Y-88874819D01*
X160767143Y-88874819D02*
X160910000Y-88922438D01*
X160910000Y-88922438D02*
X161005238Y-89017676D01*
X161005238Y-89017676D02*
X161052857Y-89160533D01*
X161052857Y-89160533D02*
X161052857Y-89398628D01*
X161052857Y-89398628D02*
X161005238Y-89541485D01*
X161005238Y-89541485D02*
X160910000Y-89636723D01*
X160910000Y-89636723D02*
X160814762Y-89684342D01*
X160814762Y-89684342D02*
X160814762Y-89874819D01*
X160814762Y-89874819D02*
X161052857Y-89874819D01*
X147948095Y-89354819D02*
X147948095Y-90164342D01*
X147948095Y-90164342D02*
X147995714Y-90259580D01*
X147995714Y-90259580D02*
X148043333Y-90307200D01*
X148043333Y-90307200D02*
X148138571Y-90354819D01*
X148138571Y-90354819D02*
X148329047Y-90354819D01*
X148329047Y-90354819D02*
X148424285Y-90307200D01*
X148424285Y-90307200D02*
X148471904Y-90259580D01*
X148471904Y-90259580D02*
X148519523Y-90164342D01*
X148519523Y-90164342D02*
X148519523Y-89354819D01*
X149519523Y-90354819D02*
X148948095Y-90354819D01*
X149233809Y-90354819D02*
X149233809Y-89354819D01*
X149233809Y-89354819D02*
X149138571Y-89497676D01*
X149138571Y-89497676D02*
X149043333Y-89592914D01*
X149043333Y-89592914D02*
X148948095Y-89640533D01*
X145636600Y-85581218D02*
X145636600Y-85819313D01*
X145398505Y-85724075D02*
X145636600Y-85819313D01*
X145636600Y-85819313D02*
X145874695Y-85724075D01*
X145493743Y-86009789D02*
X145636600Y-85819313D01*
X145636600Y-85819313D02*
X145779457Y-86009789D01*
X134843333Y-99034819D02*
X134510000Y-98558628D01*
X134271905Y-99034819D02*
X134271905Y-98034819D01*
X134271905Y-98034819D02*
X134652857Y-98034819D01*
X134652857Y-98034819D02*
X134748095Y-98082438D01*
X134748095Y-98082438D02*
X134795714Y-98130057D01*
X134795714Y-98130057D02*
X134843333Y-98225295D01*
X134843333Y-98225295D02*
X134843333Y-98368152D01*
X134843333Y-98368152D02*
X134795714Y-98463390D01*
X134795714Y-98463390D02*
X134748095Y-98511009D01*
X134748095Y-98511009D02*
X134652857Y-98558628D01*
X134652857Y-98558628D02*
X134271905Y-98558628D01*
X135224286Y-98130057D02*
X135271905Y-98082438D01*
X135271905Y-98082438D02*
X135367143Y-98034819D01*
X135367143Y-98034819D02*
X135605238Y-98034819D01*
X135605238Y-98034819D02*
X135700476Y-98082438D01*
X135700476Y-98082438D02*
X135748095Y-98130057D01*
X135748095Y-98130057D02*
X135795714Y-98225295D01*
X135795714Y-98225295D02*
X135795714Y-98320533D01*
X135795714Y-98320533D02*
X135748095Y-98463390D01*
X135748095Y-98463390D02*
X135176667Y-99034819D01*
X135176667Y-99034819D02*
X135795714Y-99034819D01*
X133390952Y-102674819D02*
X132819524Y-102674819D01*
X133105238Y-102674819D02*
X133105238Y-101674819D01*
X133105238Y-101674819D02*
X133010000Y-101817676D01*
X133010000Y-101817676D02*
X132914762Y-101912914D01*
X132914762Y-101912914D02*
X132819524Y-101960533D01*
X134010000Y-101674819D02*
X134105238Y-101674819D01*
X134105238Y-101674819D02*
X134200476Y-101722438D01*
X134200476Y-101722438D02*
X134248095Y-101770057D01*
X134248095Y-101770057D02*
X134295714Y-101865295D01*
X134295714Y-101865295D02*
X134343333Y-102055771D01*
X134343333Y-102055771D02*
X134343333Y-102293866D01*
X134343333Y-102293866D02*
X134295714Y-102484342D01*
X134295714Y-102484342D02*
X134248095Y-102579580D01*
X134248095Y-102579580D02*
X134200476Y-102627200D01*
X134200476Y-102627200D02*
X134105238Y-102674819D01*
X134105238Y-102674819D02*
X134010000Y-102674819D01*
X134010000Y-102674819D02*
X133914762Y-102627200D01*
X133914762Y-102627200D02*
X133867143Y-102579580D01*
X133867143Y-102579580D02*
X133819524Y-102484342D01*
X133819524Y-102484342D02*
X133771905Y-102293866D01*
X133771905Y-102293866D02*
X133771905Y-102055771D01*
X133771905Y-102055771D02*
X133819524Y-101865295D01*
X133819524Y-101865295D02*
X133867143Y-101770057D01*
X133867143Y-101770057D02*
X133914762Y-101722438D01*
X133914762Y-101722438D02*
X134010000Y-101674819D01*
X134962381Y-101674819D02*
X135057619Y-101674819D01*
X135057619Y-101674819D02*
X135152857Y-101722438D01*
X135152857Y-101722438D02*
X135200476Y-101770057D01*
X135200476Y-101770057D02*
X135248095Y-101865295D01*
X135248095Y-101865295D02*
X135295714Y-102055771D01*
X135295714Y-102055771D02*
X135295714Y-102293866D01*
X135295714Y-102293866D02*
X135248095Y-102484342D01*
X135248095Y-102484342D02*
X135200476Y-102579580D01*
X135200476Y-102579580D02*
X135152857Y-102627200D01*
X135152857Y-102627200D02*
X135057619Y-102674819D01*
X135057619Y-102674819D02*
X134962381Y-102674819D01*
X134962381Y-102674819D02*
X134867143Y-102627200D01*
X134867143Y-102627200D02*
X134819524Y-102579580D01*
X134819524Y-102579580D02*
X134771905Y-102484342D01*
X134771905Y-102484342D02*
X134724286Y-102293866D01*
X134724286Y-102293866D02*
X134724286Y-102055771D01*
X134724286Y-102055771D02*
X134771905Y-101865295D01*
X134771905Y-101865295D02*
X134819524Y-101770057D01*
X134819524Y-101770057D02*
X134867143Y-101722438D01*
X134867143Y-101722438D02*
X134962381Y-101674819D01*
X136438572Y-102674819D02*
X136676667Y-102674819D01*
X136676667Y-102674819D02*
X136676667Y-102484342D01*
X136676667Y-102484342D02*
X136581429Y-102436723D01*
X136581429Y-102436723D02*
X136486191Y-102341485D01*
X136486191Y-102341485D02*
X136438572Y-102198628D01*
X136438572Y-102198628D02*
X136438572Y-101960533D01*
X136438572Y-101960533D02*
X136486191Y-101817676D01*
X136486191Y-101817676D02*
X136581429Y-101722438D01*
X136581429Y-101722438D02*
X136724286Y-101674819D01*
X136724286Y-101674819D02*
X136914762Y-101674819D01*
X136914762Y-101674819D02*
X137057619Y-101722438D01*
X137057619Y-101722438D02*
X137152857Y-101817676D01*
X137152857Y-101817676D02*
X137200476Y-101960533D01*
X137200476Y-101960533D02*
X137200476Y-102198628D01*
X137200476Y-102198628D02*
X137152857Y-102341485D01*
X137152857Y-102341485D02*
X137057619Y-102436723D01*
X137057619Y-102436723D02*
X136962381Y-102484342D01*
X136962381Y-102484342D02*
X136962381Y-102674819D01*
X136962381Y-102674819D02*
X137200476Y-102674819D01*
X162343333Y-99034819D02*
X162010000Y-98558628D01*
X161771905Y-99034819D02*
X161771905Y-98034819D01*
X161771905Y-98034819D02*
X162152857Y-98034819D01*
X162152857Y-98034819D02*
X162248095Y-98082438D01*
X162248095Y-98082438D02*
X162295714Y-98130057D01*
X162295714Y-98130057D02*
X162343333Y-98225295D01*
X162343333Y-98225295D02*
X162343333Y-98368152D01*
X162343333Y-98368152D02*
X162295714Y-98463390D01*
X162295714Y-98463390D02*
X162248095Y-98511009D01*
X162248095Y-98511009D02*
X162152857Y-98558628D01*
X162152857Y-98558628D02*
X161771905Y-98558628D01*
X163248095Y-98034819D02*
X162771905Y-98034819D01*
X162771905Y-98034819D02*
X162724286Y-98511009D01*
X162724286Y-98511009D02*
X162771905Y-98463390D01*
X162771905Y-98463390D02*
X162867143Y-98415771D01*
X162867143Y-98415771D02*
X163105238Y-98415771D01*
X163105238Y-98415771D02*
X163200476Y-98463390D01*
X163200476Y-98463390D02*
X163248095Y-98511009D01*
X163248095Y-98511009D02*
X163295714Y-98606247D01*
X163295714Y-98606247D02*
X163295714Y-98844342D01*
X163295714Y-98844342D02*
X163248095Y-98939580D01*
X163248095Y-98939580D02*
X163200476Y-98987200D01*
X163200476Y-98987200D02*
X163105238Y-99034819D01*
X163105238Y-99034819D02*
X162867143Y-99034819D01*
X162867143Y-99034819D02*
X162771905Y-98987200D01*
X162771905Y-98987200D02*
X162724286Y-98939580D01*
X160486190Y-102674819D02*
X159914762Y-102674819D01*
X160200476Y-102674819D02*
X160200476Y-101674819D01*
X160200476Y-101674819D02*
X160105238Y-101817676D01*
X160105238Y-101817676D02*
X160010000Y-101912914D01*
X160010000Y-101912914D02*
X159914762Y-101960533D01*
X161105238Y-101674819D02*
X161200476Y-101674819D01*
X161200476Y-101674819D02*
X161295714Y-101722438D01*
X161295714Y-101722438D02*
X161343333Y-101770057D01*
X161343333Y-101770057D02*
X161390952Y-101865295D01*
X161390952Y-101865295D02*
X161438571Y-102055771D01*
X161438571Y-102055771D02*
X161438571Y-102293866D01*
X161438571Y-102293866D02*
X161390952Y-102484342D01*
X161390952Y-102484342D02*
X161343333Y-102579580D01*
X161343333Y-102579580D02*
X161295714Y-102627200D01*
X161295714Y-102627200D02*
X161200476Y-102674819D01*
X161200476Y-102674819D02*
X161105238Y-102674819D01*
X161105238Y-102674819D02*
X161010000Y-102627200D01*
X161010000Y-102627200D02*
X160962381Y-102579580D01*
X160962381Y-102579580D02*
X160914762Y-102484342D01*
X160914762Y-102484342D02*
X160867143Y-102293866D01*
X160867143Y-102293866D02*
X160867143Y-102055771D01*
X160867143Y-102055771D02*
X160914762Y-101865295D01*
X160914762Y-101865295D02*
X160962381Y-101770057D01*
X160962381Y-101770057D02*
X161010000Y-101722438D01*
X161010000Y-101722438D02*
X161105238Y-101674819D01*
X162057619Y-101674819D02*
X162152857Y-101674819D01*
X162152857Y-101674819D02*
X162248095Y-101722438D01*
X162248095Y-101722438D02*
X162295714Y-101770057D01*
X162295714Y-101770057D02*
X162343333Y-101865295D01*
X162343333Y-101865295D02*
X162390952Y-102055771D01*
X162390952Y-102055771D02*
X162390952Y-102293866D01*
X162390952Y-102293866D02*
X162343333Y-102484342D01*
X162343333Y-102484342D02*
X162295714Y-102579580D01*
X162295714Y-102579580D02*
X162248095Y-102627200D01*
X162248095Y-102627200D02*
X162152857Y-102674819D01*
X162152857Y-102674819D02*
X162057619Y-102674819D01*
X162057619Y-102674819D02*
X161962381Y-102627200D01*
X161962381Y-102627200D02*
X161914762Y-102579580D01*
X161914762Y-102579580D02*
X161867143Y-102484342D01*
X161867143Y-102484342D02*
X161819524Y-102293866D01*
X161819524Y-102293866D02*
X161819524Y-102055771D01*
X161819524Y-102055771D02*
X161867143Y-101865295D01*
X161867143Y-101865295D02*
X161914762Y-101770057D01*
X161914762Y-101770057D02*
X161962381Y-101722438D01*
X161962381Y-101722438D02*
X162057619Y-101674819D01*
X163581429Y-102674819D02*
X163581429Y-101674819D01*
X163676667Y-102293866D02*
X163962381Y-102674819D01*
X163962381Y-102008152D02*
X163581429Y-102389104D01*
X164343334Y-102674819D02*
X164581429Y-102674819D01*
X164581429Y-102674819D02*
X164581429Y-102484342D01*
X164581429Y-102484342D02*
X164486191Y-102436723D01*
X164486191Y-102436723D02*
X164390953Y-102341485D01*
X164390953Y-102341485D02*
X164343334Y-102198628D01*
X164343334Y-102198628D02*
X164343334Y-101960533D01*
X164343334Y-101960533D02*
X164390953Y-101817676D01*
X164390953Y-101817676D02*
X164486191Y-101722438D01*
X164486191Y-101722438D02*
X164629048Y-101674819D01*
X164629048Y-101674819D02*
X164819524Y-101674819D01*
X164819524Y-101674819D02*
X164962381Y-101722438D01*
X164962381Y-101722438D02*
X165057619Y-101817676D01*
X165057619Y-101817676D02*
X165105238Y-101960533D01*
X165105238Y-101960533D02*
X165105238Y-102198628D01*
X165105238Y-102198628D02*
X165057619Y-102341485D01*
X165057619Y-102341485D02*
X164962381Y-102436723D01*
X164962381Y-102436723D02*
X164867143Y-102484342D01*
X164867143Y-102484342D02*
X164867143Y-102674819D01*
X164867143Y-102674819D02*
X165105238Y-102674819D01*
X154343333Y-99034819D02*
X154010000Y-98558628D01*
X153771905Y-99034819D02*
X153771905Y-98034819D01*
X153771905Y-98034819D02*
X154152857Y-98034819D01*
X154152857Y-98034819D02*
X154248095Y-98082438D01*
X154248095Y-98082438D02*
X154295714Y-98130057D01*
X154295714Y-98130057D02*
X154343333Y-98225295D01*
X154343333Y-98225295D02*
X154343333Y-98368152D01*
X154343333Y-98368152D02*
X154295714Y-98463390D01*
X154295714Y-98463390D02*
X154248095Y-98511009D01*
X154248095Y-98511009D02*
X154152857Y-98558628D01*
X154152857Y-98558628D02*
X153771905Y-98558628D01*
X155200476Y-98368152D02*
X155200476Y-99034819D01*
X154962381Y-97987200D02*
X154724286Y-98701485D01*
X154724286Y-98701485D02*
X155343333Y-98701485D01*
X152890952Y-102674819D02*
X152319524Y-102674819D01*
X152605238Y-102674819D02*
X152605238Y-101674819D01*
X152605238Y-101674819D02*
X152510000Y-101817676D01*
X152510000Y-101817676D02*
X152414762Y-101912914D01*
X152414762Y-101912914D02*
X152319524Y-101960533D01*
X153510000Y-101674819D02*
X153605238Y-101674819D01*
X153605238Y-101674819D02*
X153700476Y-101722438D01*
X153700476Y-101722438D02*
X153748095Y-101770057D01*
X153748095Y-101770057D02*
X153795714Y-101865295D01*
X153795714Y-101865295D02*
X153843333Y-102055771D01*
X153843333Y-102055771D02*
X153843333Y-102293866D01*
X153843333Y-102293866D02*
X153795714Y-102484342D01*
X153795714Y-102484342D02*
X153748095Y-102579580D01*
X153748095Y-102579580D02*
X153700476Y-102627200D01*
X153700476Y-102627200D02*
X153605238Y-102674819D01*
X153605238Y-102674819D02*
X153510000Y-102674819D01*
X153510000Y-102674819D02*
X153414762Y-102627200D01*
X153414762Y-102627200D02*
X153367143Y-102579580D01*
X153367143Y-102579580D02*
X153319524Y-102484342D01*
X153319524Y-102484342D02*
X153271905Y-102293866D01*
X153271905Y-102293866D02*
X153271905Y-102055771D01*
X153271905Y-102055771D02*
X153319524Y-101865295D01*
X153319524Y-101865295D02*
X153367143Y-101770057D01*
X153367143Y-101770057D02*
X153414762Y-101722438D01*
X153414762Y-101722438D02*
X153510000Y-101674819D01*
X154462381Y-101674819D02*
X154557619Y-101674819D01*
X154557619Y-101674819D02*
X154652857Y-101722438D01*
X154652857Y-101722438D02*
X154700476Y-101770057D01*
X154700476Y-101770057D02*
X154748095Y-101865295D01*
X154748095Y-101865295D02*
X154795714Y-102055771D01*
X154795714Y-102055771D02*
X154795714Y-102293866D01*
X154795714Y-102293866D02*
X154748095Y-102484342D01*
X154748095Y-102484342D02*
X154700476Y-102579580D01*
X154700476Y-102579580D02*
X154652857Y-102627200D01*
X154652857Y-102627200D02*
X154557619Y-102674819D01*
X154557619Y-102674819D02*
X154462381Y-102674819D01*
X154462381Y-102674819D02*
X154367143Y-102627200D01*
X154367143Y-102627200D02*
X154319524Y-102579580D01*
X154319524Y-102579580D02*
X154271905Y-102484342D01*
X154271905Y-102484342D02*
X154224286Y-102293866D01*
X154224286Y-102293866D02*
X154224286Y-102055771D01*
X154224286Y-102055771D02*
X154271905Y-101865295D01*
X154271905Y-101865295D02*
X154319524Y-101770057D01*
X154319524Y-101770057D02*
X154367143Y-101722438D01*
X154367143Y-101722438D02*
X154462381Y-101674819D01*
X155938572Y-102674819D02*
X156176667Y-102674819D01*
X156176667Y-102674819D02*
X156176667Y-102484342D01*
X156176667Y-102484342D02*
X156081429Y-102436723D01*
X156081429Y-102436723D02*
X155986191Y-102341485D01*
X155986191Y-102341485D02*
X155938572Y-102198628D01*
X155938572Y-102198628D02*
X155938572Y-101960533D01*
X155938572Y-101960533D02*
X155986191Y-101817676D01*
X155986191Y-101817676D02*
X156081429Y-101722438D01*
X156081429Y-101722438D02*
X156224286Y-101674819D01*
X156224286Y-101674819D02*
X156414762Y-101674819D01*
X156414762Y-101674819D02*
X156557619Y-101722438D01*
X156557619Y-101722438D02*
X156652857Y-101817676D01*
X156652857Y-101817676D02*
X156700476Y-101960533D01*
X156700476Y-101960533D02*
X156700476Y-102198628D01*
X156700476Y-102198628D02*
X156652857Y-102341485D01*
X156652857Y-102341485D02*
X156557619Y-102436723D01*
X156557619Y-102436723D02*
X156462381Y-102484342D01*
X156462381Y-102484342D02*
X156462381Y-102674819D01*
X156462381Y-102674819D02*
X156700476Y-102674819D01*
X123243333Y-78034819D02*
X122910000Y-77558628D01*
X122671905Y-78034819D02*
X122671905Y-77034819D01*
X122671905Y-77034819D02*
X123052857Y-77034819D01*
X123052857Y-77034819D02*
X123148095Y-77082438D01*
X123148095Y-77082438D02*
X123195714Y-77130057D01*
X123195714Y-77130057D02*
X123243333Y-77225295D01*
X123243333Y-77225295D02*
X123243333Y-77368152D01*
X123243333Y-77368152D02*
X123195714Y-77463390D01*
X123195714Y-77463390D02*
X123148095Y-77511009D01*
X123148095Y-77511009D02*
X123052857Y-77558628D01*
X123052857Y-77558628D02*
X122671905Y-77558628D01*
X123576667Y-77034819D02*
X124243333Y-77034819D01*
X124243333Y-77034819D02*
X123814762Y-78034819D01*
X121386190Y-81674819D02*
X120814762Y-81674819D01*
X121100476Y-81674819D02*
X121100476Y-80674819D01*
X121100476Y-80674819D02*
X121005238Y-80817676D01*
X121005238Y-80817676D02*
X120910000Y-80912914D01*
X120910000Y-80912914D02*
X120814762Y-80960533D01*
X122005238Y-80674819D02*
X122100476Y-80674819D01*
X122100476Y-80674819D02*
X122195714Y-80722438D01*
X122195714Y-80722438D02*
X122243333Y-80770057D01*
X122243333Y-80770057D02*
X122290952Y-80865295D01*
X122290952Y-80865295D02*
X122338571Y-81055771D01*
X122338571Y-81055771D02*
X122338571Y-81293866D01*
X122338571Y-81293866D02*
X122290952Y-81484342D01*
X122290952Y-81484342D02*
X122243333Y-81579580D01*
X122243333Y-81579580D02*
X122195714Y-81627200D01*
X122195714Y-81627200D02*
X122100476Y-81674819D01*
X122100476Y-81674819D02*
X122005238Y-81674819D01*
X122005238Y-81674819D02*
X121910000Y-81627200D01*
X121910000Y-81627200D02*
X121862381Y-81579580D01*
X121862381Y-81579580D02*
X121814762Y-81484342D01*
X121814762Y-81484342D02*
X121767143Y-81293866D01*
X121767143Y-81293866D02*
X121767143Y-81055771D01*
X121767143Y-81055771D02*
X121814762Y-80865295D01*
X121814762Y-80865295D02*
X121862381Y-80770057D01*
X121862381Y-80770057D02*
X121910000Y-80722438D01*
X121910000Y-80722438D02*
X122005238Y-80674819D01*
X122957619Y-80674819D02*
X123052857Y-80674819D01*
X123052857Y-80674819D02*
X123148095Y-80722438D01*
X123148095Y-80722438D02*
X123195714Y-80770057D01*
X123195714Y-80770057D02*
X123243333Y-80865295D01*
X123243333Y-80865295D02*
X123290952Y-81055771D01*
X123290952Y-81055771D02*
X123290952Y-81293866D01*
X123290952Y-81293866D02*
X123243333Y-81484342D01*
X123243333Y-81484342D02*
X123195714Y-81579580D01*
X123195714Y-81579580D02*
X123148095Y-81627200D01*
X123148095Y-81627200D02*
X123052857Y-81674819D01*
X123052857Y-81674819D02*
X122957619Y-81674819D01*
X122957619Y-81674819D02*
X122862381Y-81627200D01*
X122862381Y-81627200D02*
X122814762Y-81579580D01*
X122814762Y-81579580D02*
X122767143Y-81484342D01*
X122767143Y-81484342D02*
X122719524Y-81293866D01*
X122719524Y-81293866D02*
X122719524Y-81055771D01*
X122719524Y-81055771D02*
X122767143Y-80865295D01*
X122767143Y-80865295D02*
X122814762Y-80770057D01*
X122814762Y-80770057D02*
X122862381Y-80722438D01*
X122862381Y-80722438D02*
X122957619Y-80674819D01*
X124481429Y-81674819D02*
X124481429Y-80674819D01*
X124576667Y-81293866D02*
X124862381Y-81674819D01*
X124862381Y-81008152D02*
X124481429Y-81389104D01*
X125243334Y-81674819D02*
X125481429Y-81674819D01*
X125481429Y-81674819D02*
X125481429Y-81484342D01*
X125481429Y-81484342D02*
X125386191Y-81436723D01*
X125386191Y-81436723D02*
X125290953Y-81341485D01*
X125290953Y-81341485D02*
X125243334Y-81198628D01*
X125243334Y-81198628D02*
X125243334Y-80960533D01*
X125243334Y-80960533D02*
X125290953Y-80817676D01*
X125290953Y-80817676D02*
X125386191Y-80722438D01*
X125386191Y-80722438D02*
X125529048Y-80674819D01*
X125529048Y-80674819D02*
X125719524Y-80674819D01*
X125719524Y-80674819D02*
X125862381Y-80722438D01*
X125862381Y-80722438D02*
X125957619Y-80817676D01*
X125957619Y-80817676D02*
X126005238Y-80960533D01*
X126005238Y-80960533D02*
X126005238Y-81198628D01*
X126005238Y-81198628D02*
X125957619Y-81341485D01*
X125957619Y-81341485D02*
X125862381Y-81436723D01*
X125862381Y-81436723D02*
X125767143Y-81484342D01*
X125767143Y-81484342D02*
X125767143Y-81674819D01*
X125767143Y-81674819D02*
X126005238Y-81674819D01*
X176464819Y-90433333D02*
X177179104Y-90433333D01*
X177179104Y-90433333D02*
X177321961Y-90480952D01*
X177321961Y-90480952D02*
X177417200Y-90576190D01*
X177417200Y-90576190D02*
X177464819Y-90719047D01*
X177464819Y-90719047D02*
X177464819Y-90814285D01*
X176560057Y-90004761D02*
X176512438Y-89957142D01*
X176512438Y-89957142D02*
X176464819Y-89861904D01*
X176464819Y-89861904D02*
X176464819Y-89623809D01*
X176464819Y-89623809D02*
X176512438Y-89528571D01*
X176512438Y-89528571D02*
X176560057Y-89480952D01*
X176560057Y-89480952D02*
X176655295Y-89433333D01*
X176655295Y-89433333D02*
X176750533Y-89433333D01*
X176750533Y-89433333D02*
X176893390Y-89480952D01*
X176893390Y-89480952D02*
X177464819Y-90052380D01*
X177464819Y-90052380D02*
X177464819Y-89433333D01*
X119314819Y-90233333D02*
X120029104Y-90233333D01*
X120029104Y-90233333D02*
X120171961Y-90280952D01*
X120171961Y-90280952D02*
X120267200Y-90376190D01*
X120267200Y-90376190D02*
X120314819Y-90519047D01*
X120314819Y-90519047D02*
X120314819Y-90614285D01*
X120314819Y-89233333D02*
X120314819Y-89804761D01*
X120314819Y-89519047D02*
X119314819Y-89519047D01*
X119314819Y-89519047D02*
X119457676Y-89614285D01*
X119457676Y-89614285D02*
X119552914Y-89709523D01*
X119552914Y-89709523D02*
X119600533Y-89804761D01*
X142743333Y-78034819D02*
X142410000Y-77558628D01*
X142171905Y-78034819D02*
X142171905Y-77034819D01*
X142171905Y-77034819D02*
X142552857Y-77034819D01*
X142552857Y-77034819D02*
X142648095Y-77082438D01*
X142648095Y-77082438D02*
X142695714Y-77130057D01*
X142695714Y-77130057D02*
X142743333Y-77225295D01*
X142743333Y-77225295D02*
X142743333Y-77368152D01*
X142743333Y-77368152D02*
X142695714Y-77463390D01*
X142695714Y-77463390D02*
X142648095Y-77511009D01*
X142648095Y-77511009D02*
X142552857Y-77558628D01*
X142552857Y-77558628D02*
X142171905Y-77558628D01*
X143219524Y-78034819D02*
X143410000Y-78034819D01*
X143410000Y-78034819D02*
X143505238Y-77987200D01*
X143505238Y-77987200D02*
X143552857Y-77939580D01*
X143552857Y-77939580D02*
X143648095Y-77796723D01*
X143648095Y-77796723D02*
X143695714Y-77606247D01*
X143695714Y-77606247D02*
X143695714Y-77225295D01*
X143695714Y-77225295D02*
X143648095Y-77130057D01*
X143648095Y-77130057D02*
X143600476Y-77082438D01*
X143600476Y-77082438D02*
X143505238Y-77034819D01*
X143505238Y-77034819D02*
X143314762Y-77034819D01*
X143314762Y-77034819D02*
X143219524Y-77082438D01*
X143219524Y-77082438D02*
X143171905Y-77130057D01*
X143171905Y-77130057D02*
X143124286Y-77225295D01*
X143124286Y-77225295D02*
X143124286Y-77463390D01*
X143124286Y-77463390D02*
X143171905Y-77558628D01*
X143171905Y-77558628D02*
X143219524Y-77606247D01*
X143219524Y-77606247D02*
X143314762Y-77653866D01*
X143314762Y-77653866D02*
X143505238Y-77653866D01*
X143505238Y-77653866D02*
X143600476Y-77606247D01*
X143600476Y-77606247D02*
X143648095Y-77558628D01*
X143648095Y-77558628D02*
X143695714Y-77463390D01*
X140886190Y-81674819D02*
X140314762Y-81674819D01*
X140600476Y-81674819D02*
X140600476Y-80674819D01*
X140600476Y-80674819D02*
X140505238Y-80817676D01*
X140505238Y-80817676D02*
X140410000Y-80912914D01*
X140410000Y-80912914D02*
X140314762Y-80960533D01*
X141505238Y-80674819D02*
X141600476Y-80674819D01*
X141600476Y-80674819D02*
X141695714Y-80722438D01*
X141695714Y-80722438D02*
X141743333Y-80770057D01*
X141743333Y-80770057D02*
X141790952Y-80865295D01*
X141790952Y-80865295D02*
X141838571Y-81055771D01*
X141838571Y-81055771D02*
X141838571Y-81293866D01*
X141838571Y-81293866D02*
X141790952Y-81484342D01*
X141790952Y-81484342D02*
X141743333Y-81579580D01*
X141743333Y-81579580D02*
X141695714Y-81627200D01*
X141695714Y-81627200D02*
X141600476Y-81674819D01*
X141600476Y-81674819D02*
X141505238Y-81674819D01*
X141505238Y-81674819D02*
X141410000Y-81627200D01*
X141410000Y-81627200D02*
X141362381Y-81579580D01*
X141362381Y-81579580D02*
X141314762Y-81484342D01*
X141314762Y-81484342D02*
X141267143Y-81293866D01*
X141267143Y-81293866D02*
X141267143Y-81055771D01*
X141267143Y-81055771D02*
X141314762Y-80865295D01*
X141314762Y-80865295D02*
X141362381Y-80770057D01*
X141362381Y-80770057D02*
X141410000Y-80722438D01*
X141410000Y-80722438D02*
X141505238Y-80674819D01*
X142457619Y-80674819D02*
X142552857Y-80674819D01*
X142552857Y-80674819D02*
X142648095Y-80722438D01*
X142648095Y-80722438D02*
X142695714Y-80770057D01*
X142695714Y-80770057D02*
X142743333Y-80865295D01*
X142743333Y-80865295D02*
X142790952Y-81055771D01*
X142790952Y-81055771D02*
X142790952Y-81293866D01*
X142790952Y-81293866D02*
X142743333Y-81484342D01*
X142743333Y-81484342D02*
X142695714Y-81579580D01*
X142695714Y-81579580D02*
X142648095Y-81627200D01*
X142648095Y-81627200D02*
X142552857Y-81674819D01*
X142552857Y-81674819D02*
X142457619Y-81674819D01*
X142457619Y-81674819D02*
X142362381Y-81627200D01*
X142362381Y-81627200D02*
X142314762Y-81579580D01*
X142314762Y-81579580D02*
X142267143Y-81484342D01*
X142267143Y-81484342D02*
X142219524Y-81293866D01*
X142219524Y-81293866D02*
X142219524Y-81055771D01*
X142219524Y-81055771D02*
X142267143Y-80865295D01*
X142267143Y-80865295D02*
X142314762Y-80770057D01*
X142314762Y-80770057D02*
X142362381Y-80722438D01*
X142362381Y-80722438D02*
X142457619Y-80674819D01*
X143981429Y-81674819D02*
X143981429Y-80674819D01*
X144076667Y-81293866D02*
X144362381Y-81674819D01*
X144362381Y-81008152D02*
X143981429Y-81389104D01*
X144743334Y-81674819D02*
X144981429Y-81674819D01*
X144981429Y-81674819D02*
X144981429Y-81484342D01*
X144981429Y-81484342D02*
X144886191Y-81436723D01*
X144886191Y-81436723D02*
X144790953Y-81341485D01*
X144790953Y-81341485D02*
X144743334Y-81198628D01*
X144743334Y-81198628D02*
X144743334Y-80960533D01*
X144743334Y-80960533D02*
X144790953Y-80817676D01*
X144790953Y-80817676D02*
X144886191Y-80722438D01*
X144886191Y-80722438D02*
X145029048Y-80674819D01*
X145029048Y-80674819D02*
X145219524Y-80674819D01*
X145219524Y-80674819D02*
X145362381Y-80722438D01*
X145362381Y-80722438D02*
X145457619Y-80817676D01*
X145457619Y-80817676D02*
X145505238Y-80960533D01*
X145505238Y-80960533D02*
X145505238Y-81198628D01*
X145505238Y-81198628D02*
X145457619Y-81341485D01*
X145457619Y-81341485D02*
X145362381Y-81436723D01*
X145362381Y-81436723D02*
X145267143Y-81484342D01*
X145267143Y-81484342D02*
X145267143Y-81674819D01*
X145267143Y-81674819D02*
X145505238Y-81674819D01*
X147966905Y-96894819D02*
X147966905Y-95894819D01*
X147966905Y-95894819D02*
X148205000Y-95894819D01*
X148205000Y-95894819D02*
X148347857Y-95942438D01*
X148347857Y-95942438D02*
X148443095Y-96037676D01*
X148443095Y-96037676D02*
X148490714Y-96132914D01*
X148490714Y-96132914D02*
X148538333Y-96323390D01*
X148538333Y-96323390D02*
X148538333Y-96466247D01*
X148538333Y-96466247D02*
X148490714Y-96656723D01*
X148490714Y-96656723D02*
X148443095Y-96751961D01*
X148443095Y-96751961D02*
X148347857Y-96847200D01*
X148347857Y-96847200D02*
X148205000Y-96894819D01*
X148205000Y-96894819D02*
X147966905Y-96894819D01*
X148919286Y-95990057D02*
X148966905Y-95942438D01*
X148966905Y-95942438D02*
X149062143Y-95894819D01*
X149062143Y-95894819D02*
X149300238Y-95894819D01*
X149300238Y-95894819D02*
X149395476Y-95942438D01*
X149395476Y-95942438D02*
X149443095Y-95990057D01*
X149443095Y-95990057D02*
X149490714Y-96085295D01*
X149490714Y-96085295D02*
X149490714Y-96180533D01*
X149490714Y-96180533D02*
X149443095Y-96323390D01*
X149443095Y-96323390D02*
X148871667Y-96894819D01*
X148871667Y-96894819D02*
X149490714Y-96894819D01*
X145038332Y-103978628D02*
X145038332Y-104454819D01*
X144704999Y-103454819D02*
X145038332Y-103978628D01*
X145038332Y-103978628D02*
X145371665Y-103454819D01*
X146085951Y-104407200D02*
X145990713Y-104454819D01*
X145990713Y-104454819D02*
X145800237Y-104454819D01*
X145800237Y-104454819D02*
X145704999Y-104407200D01*
X145704999Y-104407200D02*
X145657380Y-104311961D01*
X145657380Y-104311961D02*
X145657380Y-103931009D01*
X145657380Y-103931009D02*
X145704999Y-103835771D01*
X145704999Y-103835771D02*
X145800237Y-103788152D01*
X145800237Y-103788152D02*
X145990713Y-103788152D01*
X145990713Y-103788152D02*
X146085951Y-103835771D01*
X146085951Y-103835771D02*
X146133570Y-103931009D01*
X146133570Y-103931009D02*
X146133570Y-104026247D01*
X146133570Y-104026247D02*
X145657380Y-104121485D01*
X146704999Y-104454819D02*
X146609761Y-104407200D01*
X146609761Y-104407200D02*
X146562142Y-104311961D01*
X146562142Y-104311961D02*
X146562142Y-103454819D01*
X147228809Y-104454819D02*
X147133571Y-104407200D01*
X147133571Y-104407200D02*
X147085952Y-104311961D01*
X147085952Y-104311961D02*
X147085952Y-103454819D01*
X147752619Y-104454819D02*
X147657381Y-104407200D01*
X147657381Y-104407200D02*
X147609762Y-104359580D01*
X147609762Y-104359580D02*
X147562143Y-104264342D01*
X147562143Y-104264342D02*
X147562143Y-103978628D01*
X147562143Y-103978628D02*
X147609762Y-103883390D01*
X147609762Y-103883390D02*
X147657381Y-103835771D01*
X147657381Y-103835771D02*
X147752619Y-103788152D01*
X147752619Y-103788152D02*
X147895476Y-103788152D01*
X147895476Y-103788152D02*
X147990714Y-103835771D01*
X147990714Y-103835771D02*
X148038333Y-103883390D01*
X148038333Y-103883390D02*
X148085952Y-103978628D01*
X148085952Y-103978628D02*
X148085952Y-104264342D01*
X148085952Y-104264342D02*
X148038333Y-104359580D01*
X148038333Y-104359580D02*
X147990714Y-104407200D01*
X147990714Y-104407200D02*
X147895476Y-104454819D01*
X147895476Y-104454819D02*
X147752619Y-104454819D01*
X148419286Y-103788152D02*
X148609762Y-104454819D01*
X148609762Y-104454819D02*
X148800238Y-103978628D01*
X148800238Y-103978628D02*
X148990714Y-104454819D01*
X148990714Y-104454819D02*
X149181190Y-103788152D01*
X150800238Y-104454819D02*
X150324048Y-104454819D01*
X150324048Y-104454819D02*
X150324048Y-103454819D01*
X151133572Y-103931009D02*
X151466905Y-103931009D01*
X151609762Y-104454819D02*
X151133572Y-104454819D01*
X151133572Y-104454819D02*
X151133572Y-103454819D01*
X151133572Y-103454819D02*
X151609762Y-103454819D01*
X152038334Y-104454819D02*
X152038334Y-103454819D01*
X152038334Y-103454819D02*
X152276429Y-103454819D01*
X152276429Y-103454819D02*
X152419286Y-103502438D01*
X152419286Y-103502438D02*
X152514524Y-103597676D01*
X152514524Y-103597676D02*
X152562143Y-103692914D01*
X152562143Y-103692914D02*
X152609762Y-103883390D01*
X152609762Y-103883390D02*
X152609762Y-104026247D01*
X152609762Y-104026247D02*
X152562143Y-104216723D01*
X152562143Y-104216723D02*
X152514524Y-104311961D01*
X152514524Y-104311961D02*
X152419286Y-104407200D01*
X152419286Y-104407200D02*
X152276429Y-104454819D01*
X152276429Y-104454819D02*
X152038334Y-104454819D01*
X153867142Y-78034819D02*
X153533809Y-77558628D01*
X153295714Y-78034819D02*
X153295714Y-77034819D01*
X153295714Y-77034819D02*
X153676666Y-77034819D01*
X153676666Y-77034819D02*
X153771904Y-77082438D01*
X153771904Y-77082438D02*
X153819523Y-77130057D01*
X153819523Y-77130057D02*
X153867142Y-77225295D01*
X153867142Y-77225295D02*
X153867142Y-77368152D01*
X153867142Y-77368152D02*
X153819523Y-77463390D01*
X153819523Y-77463390D02*
X153771904Y-77511009D01*
X153771904Y-77511009D02*
X153676666Y-77558628D01*
X153676666Y-77558628D02*
X153295714Y-77558628D01*
X154819523Y-78034819D02*
X154248095Y-78034819D01*
X154533809Y-78034819D02*
X154533809Y-77034819D01*
X154533809Y-77034819D02*
X154438571Y-77177676D01*
X154438571Y-77177676D02*
X154343333Y-77272914D01*
X154343333Y-77272914D02*
X154248095Y-77320533D01*
X155438571Y-77034819D02*
X155533809Y-77034819D01*
X155533809Y-77034819D02*
X155629047Y-77082438D01*
X155629047Y-77082438D02*
X155676666Y-77130057D01*
X155676666Y-77130057D02*
X155724285Y-77225295D01*
X155724285Y-77225295D02*
X155771904Y-77415771D01*
X155771904Y-77415771D02*
X155771904Y-77653866D01*
X155771904Y-77653866D02*
X155724285Y-77844342D01*
X155724285Y-77844342D02*
X155676666Y-77939580D01*
X155676666Y-77939580D02*
X155629047Y-77987200D01*
X155629047Y-77987200D02*
X155533809Y-78034819D01*
X155533809Y-78034819D02*
X155438571Y-78034819D01*
X155438571Y-78034819D02*
X155343333Y-77987200D01*
X155343333Y-77987200D02*
X155295714Y-77939580D01*
X155295714Y-77939580D02*
X155248095Y-77844342D01*
X155248095Y-77844342D02*
X155200476Y-77653866D01*
X155200476Y-77653866D02*
X155200476Y-77415771D01*
X155200476Y-77415771D02*
X155248095Y-77225295D01*
X155248095Y-77225295D02*
X155295714Y-77130057D01*
X155295714Y-77130057D02*
X155343333Y-77082438D01*
X155343333Y-77082438D02*
X155438571Y-77034819D01*
X152319524Y-80770057D02*
X152367143Y-80722438D01*
X152367143Y-80722438D02*
X152462381Y-80674819D01*
X152462381Y-80674819D02*
X152700476Y-80674819D01*
X152700476Y-80674819D02*
X152795714Y-80722438D01*
X152795714Y-80722438D02*
X152843333Y-80770057D01*
X152843333Y-80770057D02*
X152890952Y-80865295D01*
X152890952Y-80865295D02*
X152890952Y-80960533D01*
X152890952Y-80960533D02*
X152843333Y-81103390D01*
X152843333Y-81103390D02*
X152271905Y-81674819D01*
X152271905Y-81674819D02*
X152890952Y-81674819D01*
X153271905Y-80770057D02*
X153319524Y-80722438D01*
X153319524Y-80722438D02*
X153414762Y-80674819D01*
X153414762Y-80674819D02*
X153652857Y-80674819D01*
X153652857Y-80674819D02*
X153748095Y-80722438D01*
X153748095Y-80722438D02*
X153795714Y-80770057D01*
X153795714Y-80770057D02*
X153843333Y-80865295D01*
X153843333Y-80865295D02*
X153843333Y-80960533D01*
X153843333Y-80960533D02*
X153795714Y-81103390D01*
X153795714Y-81103390D02*
X153224286Y-81674819D01*
X153224286Y-81674819D02*
X153843333Y-81674819D01*
X154462381Y-80674819D02*
X154557619Y-80674819D01*
X154557619Y-80674819D02*
X154652857Y-80722438D01*
X154652857Y-80722438D02*
X154700476Y-80770057D01*
X154700476Y-80770057D02*
X154748095Y-80865295D01*
X154748095Y-80865295D02*
X154795714Y-81055771D01*
X154795714Y-81055771D02*
X154795714Y-81293866D01*
X154795714Y-81293866D02*
X154748095Y-81484342D01*
X154748095Y-81484342D02*
X154700476Y-81579580D01*
X154700476Y-81579580D02*
X154652857Y-81627200D01*
X154652857Y-81627200D02*
X154557619Y-81674819D01*
X154557619Y-81674819D02*
X154462381Y-81674819D01*
X154462381Y-81674819D02*
X154367143Y-81627200D01*
X154367143Y-81627200D02*
X154319524Y-81579580D01*
X154319524Y-81579580D02*
X154271905Y-81484342D01*
X154271905Y-81484342D02*
X154224286Y-81293866D01*
X154224286Y-81293866D02*
X154224286Y-81055771D01*
X154224286Y-81055771D02*
X154271905Y-80865295D01*
X154271905Y-80865295D02*
X154319524Y-80770057D01*
X154319524Y-80770057D02*
X154367143Y-80722438D01*
X154367143Y-80722438D02*
X154462381Y-80674819D01*
X155938572Y-81674819D02*
X156176667Y-81674819D01*
X156176667Y-81674819D02*
X156176667Y-81484342D01*
X156176667Y-81484342D02*
X156081429Y-81436723D01*
X156081429Y-81436723D02*
X155986191Y-81341485D01*
X155986191Y-81341485D02*
X155938572Y-81198628D01*
X155938572Y-81198628D02*
X155938572Y-80960533D01*
X155938572Y-80960533D02*
X155986191Y-80817676D01*
X155986191Y-80817676D02*
X156081429Y-80722438D01*
X156081429Y-80722438D02*
X156224286Y-80674819D01*
X156224286Y-80674819D02*
X156414762Y-80674819D01*
X156414762Y-80674819D02*
X156557619Y-80722438D01*
X156557619Y-80722438D02*
X156652857Y-80817676D01*
X156652857Y-80817676D02*
X156700476Y-80960533D01*
X156700476Y-80960533D02*
X156700476Y-81198628D01*
X156700476Y-81198628D02*
X156652857Y-81341485D01*
X156652857Y-81341485D02*
X156557619Y-81436723D01*
X156557619Y-81436723D02*
X156462381Y-81484342D01*
X156462381Y-81484342D02*
X156462381Y-81674819D01*
X156462381Y-81674819D02*
X156700476Y-81674819D01*
X134743333Y-78034819D02*
X134410000Y-77558628D01*
X134171905Y-78034819D02*
X134171905Y-77034819D01*
X134171905Y-77034819D02*
X134552857Y-77034819D01*
X134552857Y-77034819D02*
X134648095Y-77082438D01*
X134648095Y-77082438D02*
X134695714Y-77130057D01*
X134695714Y-77130057D02*
X134743333Y-77225295D01*
X134743333Y-77225295D02*
X134743333Y-77368152D01*
X134743333Y-77368152D02*
X134695714Y-77463390D01*
X134695714Y-77463390D02*
X134648095Y-77511009D01*
X134648095Y-77511009D02*
X134552857Y-77558628D01*
X134552857Y-77558628D02*
X134171905Y-77558628D01*
X135314762Y-77463390D02*
X135219524Y-77415771D01*
X135219524Y-77415771D02*
X135171905Y-77368152D01*
X135171905Y-77368152D02*
X135124286Y-77272914D01*
X135124286Y-77272914D02*
X135124286Y-77225295D01*
X135124286Y-77225295D02*
X135171905Y-77130057D01*
X135171905Y-77130057D02*
X135219524Y-77082438D01*
X135219524Y-77082438D02*
X135314762Y-77034819D01*
X135314762Y-77034819D02*
X135505238Y-77034819D01*
X135505238Y-77034819D02*
X135600476Y-77082438D01*
X135600476Y-77082438D02*
X135648095Y-77130057D01*
X135648095Y-77130057D02*
X135695714Y-77225295D01*
X135695714Y-77225295D02*
X135695714Y-77272914D01*
X135695714Y-77272914D02*
X135648095Y-77368152D01*
X135648095Y-77368152D02*
X135600476Y-77415771D01*
X135600476Y-77415771D02*
X135505238Y-77463390D01*
X135505238Y-77463390D02*
X135314762Y-77463390D01*
X135314762Y-77463390D02*
X135219524Y-77511009D01*
X135219524Y-77511009D02*
X135171905Y-77558628D01*
X135171905Y-77558628D02*
X135124286Y-77653866D01*
X135124286Y-77653866D02*
X135124286Y-77844342D01*
X135124286Y-77844342D02*
X135171905Y-77939580D01*
X135171905Y-77939580D02*
X135219524Y-77987200D01*
X135219524Y-77987200D02*
X135314762Y-78034819D01*
X135314762Y-78034819D02*
X135505238Y-78034819D01*
X135505238Y-78034819D02*
X135600476Y-77987200D01*
X135600476Y-77987200D02*
X135648095Y-77939580D01*
X135648095Y-77939580D02*
X135695714Y-77844342D01*
X135695714Y-77844342D02*
X135695714Y-77653866D01*
X135695714Y-77653866D02*
X135648095Y-77558628D01*
X135648095Y-77558628D02*
X135600476Y-77511009D01*
X135600476Y-77511009D02*
X135505238Y-77463390D01*
X132719524Y-80770057D02*
X132767143Y-80722438D01*
X132767143Y-80722438D02*
X132862381Y-80674819D01*
X132862381Y-80674819D02*
X133100476Y-80674819D01*
X133100476Y-80674819D02*
X133195714Y-80722438D01*
X133195714Y-80722438D02*
X133243333Y-80770057D01*
X133243333Y-80770057D02*
X133290952Y-80865295D01*
X133290952Y-80865295D02*
X133290952Y-80960533D01*
X133290952Y-80960533D02*
X133243333Y-81103390D01*
X133243333Y-81103390D02*
X132671905Y-81674819D01*
X132671905Y-81674819D02*
X133290952Y-81674819D01*
X133671905Y-80770057D02*
X133719524Y-80722438D01*
X133719524Y-80722438D02*
X133814762Y-80674819D01*
X133814762Y-80674819D02*
X134052857Y-80674819D01*
X134052857Y-80674819D02*
X134148095Y-80722438D01*
X134148095Y-80722438D02*
X134195714Y-80770057D01*
X134195714Y-80770057D02*
X134243333Y-80865295D01*
X134243333Y-80865295D02*
X134243333Y-80960533D01*
X134243333Y-80960533D02*
X134195714Y-81103390D01*
X134195714Y-81103390D02*
X133624286Y-81674819D01*
X133624286Y-81674819D02*
X134243333Y-81674819D01*
X134862381Y-80674819D02*
X134957619Y-80674819D01*
X134957619Y-80674819D02*
X135052857Y-80722438D01*
X135052857Y-80722438D02*
X135100476Y-80770057D01*
X135100476Y-80770057D02*
X135148095Y-80865295D01*
X135148095Y-80865295D02*
X135195714Y-81055771D01*
X135195714Y-81055771D02*
X135195714Y-81293866D01*
X135195714Y-81293866D02*
X135148095Y-81484342D01*
X135148095Y-81484342D02*
X135100476Y-81579580D01*
X135100476Y-81579580D02*
X135052857Y-81627200D01*
X135052857Y-81627200D02*
X134957619Y-81674819D01*
X134957619Y-81674819D02*
X134862381Y-81674819D01*
X134862381Y-81674819D02*
X134767143Y-81627200D01*
X134767143Y-81627200D02*
X134719524Y-81579580D01*
X134719524Y-81579580D02*
X134671905Y-81484342D01*
X134671905Y-81484342D02*
X134624286Y-81293866D01*
X134624286Y-81293866D02*
X134624286Y-81055771D01*
X134624286Y-81055771D02*
X134671905Y-80865295D01*
X134671905Y-80865295D02*
X134719524Y-80770057D01*
X134719524Y-80770057D02*
X134767143Y-80722438D01*
X134767143Y-80722438D02*
X134862381Y-80674819D01*
X136338572Y-81674819D02*
X136576667Y-81674819D01*
X136576667Y-81674819D02*
X136576667Y-81484342D01*
X136576667Y-81484342D02*
X136481429Y-81436723D01*
X136481429Y-81436723D02*
X136386191Y-81341485D01*
X136386191Y-81341485D02*
X136338572Y-81198628D01*
X136338572Y-81198628D02*
X136338572Y-80960533D01*
X136338572Y-80960533D02*
X136386191Y-80817676D01*
X136386191Y-80817676D02*
X136481429Y-80722438D01*
X136481429Y-80722438D02*
X136624286Y-80674819D01*
X136624286Y-80674819D02*
X136814762Y-80674819D01*
X136814762Y-80674819D02*
X136957619Y-80722438D01*
X136957619Y-80722438D02*
X137052857Y-80817676D01*
X137052857Y-80817676D02*
X137100476Y-80960533D01*
X137100476Y-80960533D02*
X137100476Y-81198628D01*
X137100476Y-81198628D02*
X137052857Y-81341485D01*
X137052857Y-81341485D02*
X136957619Y-81436723D01*
X136957619Y-81436723D02*
X136862381Y-81484342D01*
X136862381Y-81484342D02*
X136862381Y-81674819D01*
X136862381Y-81674819D02*
X137100476Y-81674819D01*
X142743333Y-99034819D02*
X142410000Y-98558628D01*
X142171905Y-99034819D02*
X142171905Y-98034819D01*
X142171905Y-98034819D02*
X142552857Y-98034819D01*
X142552857Y-98034819D02*
X142648095Y-98082438D01*
X142648095Y-98082438D02*
X142695714Y-98130057D01*
X142695714Y-98130057D02*
X142743333Y-98225295D01*
X142743333Y-98225295D02*
X142743333Y-98368152D01*
X142743333Y-98368152D02*
X142695714Y-98463390D01*
X142695714Y-98463390D02*
X142648095Y-98511009D01*
X142648095Y-98511009D02*
X142552857Y-98558628D01*
X142552857Y-98558628D02*
X142171905Y-98558628D01*
X143076667Y-98034819D02*
X143695714Y-98034819D01*
X143695714Y-98034819D02*
X143362381Y-98415771D01*
X143362381Y-98415771D02*
X143505238Y-98415771D01*
X143505238Y-98415771D02*
X143600476Y-98463390D01*
X143600476Y-98463390D02*
X143648095Y-98511009D01*
X143648095Y-98511009D02*
X143695714Y-98606247D01*
X143695714Y-98606247D02*
X143695714Y-98844342D01*
X143695714Y-98844342D02*
X143648095Y-98939580D01*
X143648095Y-98939580D02*
X143600476Y-98987200D01*
X143600476Y-98987200D02*
X143505238Y-99034819D01*
X143505238Y-99034819D02*
X143219524Y-99034819D01*
X143219524Y-99034819D02*
X143124286Y-98987200D01*
X143124286Y-98987200D02*
X143076667Y-98939580D01*
X140886190Y-102674819D02*
X140314762Y-102674819D01*
X140600476Y-102674819D02*
X140600476Y-101674819D01*
X140600476Y-101674819D02*
X140505238Y-101817676D01*
X140505238Y-101817676D02*
X140410000Y-101912914D01*
X140410000Y-101912914D02*
X140314762Y-101960533D01*
X141505238Y-101674819D02*
X141600476Y-101674819D01*
X141600476Y-101674819D02*
X141695714Y-101722438D01*
X141695714Y-101722438D02*
X141743333Y-101770057D01*
X141743333Y-101770057D02*
X141790952Y-101865295D01*
X141790952Y-101865295D02*
X141838571Y-102055771D01*
X141838571Y-102055771D02*
X141838571Y-102293866D01*
X141838571Y-102293866D02*
X141790952Y-102484342D01*
X141790952Y-102484342D02*
X141743333Y-102579580D01*
X141743333Y-102579580D02*
X141695714Y-102627200D01*
X141695714Y-102627200D02*
X141600476Y-102674819D01*
X141600476Y-102674819D02*
X141505238Y-102674819D01*
X141505238Y-102674819D02*
X141410000Y-102627200D01*
X141410000Y-102627200D02*
X141362381Y-102579580D01*
X141362381Y-102579580D02*
X141314762Y-102484342D01*
X141314762Y-102484342D02*
X141267143Y-102293866D01*
X141267143Y-102293866D02*
X141267143Y-102055771D01*
X141267143Y-102055771D02*
X141314762Y-101865295D01*
X141314762Y-101865295D02*
X141362381Y-101770057D01*
X141362381Y-101770057D02*
X141410000Y-101722438D01*
X141410000Y-101722438D02*
X141505238Y-101674819D01*
X142457619Y-101674819D02*
X142552857Y-101674819D01*
X142552857Y-101674819D02*
X142648095Y-101722438D01*
X142648095Y-101722438D02*
X142695714Y-101770057D01*
X142695714Y-101770057D02*
X142743333Y-101865295D01*
X142743333Y-101865295D02*
X142790952Y-102055771D01*
X142790952Y-102055771D02*
X142790952Y-102293866D01*
X142790952Y-102293866D02*
X142743333Y-102484342D01*
X142743333Y-102484342D02*
X142695714Y-102579580D01*
X142695714Y-102579580D02*
X142648095Y-102627200D01*
X142648095Y-102627200D02*
X142552857Y-102674819D01*
X142552857Y-102674819D02*
X142457619Y-102674819D01*
X142457619Y-102674819D02*
X142362381Y-102627200D01*
X142362381Y-102627200D02*
X142314762Y-102579580D01*
X142314762Y-102579580D02*
X142267143Y-102484342D01*
X142267143Y-102484342D02*
X142219524Y-102293866D01*
X142219524Y-102293866D02*
X142219524Y-102055771D01*
X142219524Y-102055771D02*
X142267143Y-101865295D01*
X142267143Y-101865295D02*
X142314762Y-101770057D01*
X142314762Y-101770057D02*
X142362381Y-101722438D01*
X142362381Y-101722438D02*
X142457619Y-101674819D01*
X143981429Y-102674819D02*
X143981429Y-101674819D01*
X144076667Y-102293866D02*
X144362381Y-102674819D01*
X144362381Y-102008152D02*
X143981429Y-102389104D01*
X144743334Y-102674819D02*
X144981429Y-102674819D01*
X144981429Y-102674819D02*
X144981429Y-102484342D01*
X144981429Y-102484342D02*
X144886191Y-102436723D01*
X144886191Y-102436723D02*
X144790953Y-102341485D01*
X144790953Y-102341485D02*
X144743334Y-102198628D01*
X144743334Y-102198628D02*
X144743334Y-101960533D01*
X144743334Y-101960533D02*
X144790953Y-101817676D01*
X144790953Y-101817676D02*
X144886191Y-101722438D01*
X144886191Y-101722438D02*
X145029048Y-101674819D01*
X145029048Y-101674819D02*
X145219524Y-101674819D01*
X145219524Y-101674819D02*
X145362381Y-101722438D01*
X145362381Y-101722438D02*
X145457619Y-101817676D01*
X145457619Y-101817676D02*
X145505238Y-101960533D01*
X145505238Y-101960533D02*
X145505238Y-102198628D01*
X145505238Y-102198628D02*
X145457619Y-102341485D01*
X145457619Y-102341485D02*
X145362381Y-102436723D01*
X145362381Y-102436723D02*
X145267143Y-102484342D01*
X145267143Y-102484342D02*
X145267143Y-102674819D01*
X145267143Y-102674819D02*
X145505238Y-102674819D01*
X123143333Y-99034819D02*
X122810000Y-98558628D01*
X122571905Y-99034819D02*
X122571905Y-98034819D01*
X122571905Y-98034819D02*
X122952857Y-98034819D01*
X122952857Y-98034819D02*
X123048095Y-98082438D01*
X123048095Y-98082438D02*
X123095714Y-98130057D01*
X123095714Y-98130057D02*
X123143333Y-98225295D01*
X123143333Y-98225295D02*
X123143333Y-98368152D01*
X123143333Y-98368152D02*
X123095714Y-98463390D01*
X123095714Y-98463390D02*
X123048095Y-98511009D01*
X123048095Y-98511009D02*
X122952857Y-98558628D01*
X122952857Y-98558628D02*
X122571905Y-98558628D01*
X124095714Y-99034819D02*
X123524286Y-99034819D01*
X123810000Y-99034819D02*
X123810000Y-98034819D01*
X123810000Y-98034819D02*
X123714762Y-98177676D01*
X123714762Y-98177676D02*
X123619524Y-98272914D01*
X123619524Y-98272914D02*
X123524286Y-98320533D01*
X121286190Y-102674819D02*
X120714762Y-102674819D01*
X121000476Y-102674819D02*
X121000476Y-101674819D01*
X121000476Y-101674819D02*
X120905238Y-101817676D01*
X120905238Y-101817676D02*
X120810000Y-101912914D01*
X120810000Y-101912914D02*
X120714762Y-101960533D01*
X121905238Y-101674819D02*
X122000476Y-101674819D01*
X122000476Y-101674819D02*
X122095714Y-101722438D01*
X122095714Y-101722438D02*
X122143333Y-101770057D01*
X122143333Y-101770057D02*
X122190952Y-101865295D01*
X122190952Y-101865295D02*
X122238571Y-102055771D01*
X122238571Y-102055771D02*
X122238571Y-102293866D01*
X122238571Y-102293866D02*
X122190952Y-102484342D01*
X122190952Y-102484342D02*
X122143333Y-102579580D01*
X122143333Y-102579580D02*
X122095714Y-102627200D01*
X122095714Y-102627200D02*
X122000476Y-102674819D01*
X122000476Y-102674819D02*
X121905238Y-102674819D01*
X121905238Y-102674819D02*
X121810000Y-102627200D01*
X121810000Y-102627200D02*
X121762381Y-102579580D01*
X121762381Y-102579580D02*
X121714762Y-102484342D01*
X121714762Y-102484342D02*
X121667143Y-102293866D01*
X121667143Y-102293866D02*
X121667143Y-102055771D01*
X121667143Y-102055771D02*
X121714762Y-101865295D01*
X121714762Y-101865295D02*
X121762381Y-101770057D01*
X121762381Y-101770057D02*
X121810000Y-101722438D01*
X121810000Y-101722438D02*
X121905238Y-101674819D01*
X122857619Y-101674819D02*
X122952857Y-101674819D01*
X122952857Y-101674819D02*
X123048095Y-101722438D01*
X123048095Y-101722438D02*
X123095714Y-101770057D01*
X123095714Y-101770057D02*
X123143333Y-101865295D01*
X123143333Y-101865295D02*
X123190952Y-102055771D01*
X123190952Y-102055771D02*
X123190952Y-102293866D01*
X123190952Y-102293866D02*
X123143333Y-102484342D01*
X123143333Y-102484342D02*
X123095714Y-102579580D01*
X123095714Y-102579580D02*
X123048095Y-102627200D01*
X123048095Y-102627200D02*
X122952857Y-102674819D01*
X122952857Y-102674819D02*
X122857619Y-102674819D01*
X122857619Y-102674819D02*
X122762381Y-102627200D01*
X122762381Y-102627200D02*
X122714762Y-102579580D01*
X122714762Y-102579580D02*
X122667143Y-102484342D01*
X122667143Y-102484342D02*
X122619524Y-102293866D01*
X122619524Y-102293866D02*
X122619524Y-102055771D01*
X122619524Y-102055771D02*
X122667143Y-101865295D01*
X122667143Y-101865295D02*
X122714762Y-101770057D01*
X122714762Y-101770057D02*
X122762381Y-101722438D01*
X122762381Y-101722438D02*
X122857619Y-101674819D01*
X124381429Y-102674819D02*
X124381429Y-101674819D01*
X124476667Y-102293866D02*
X124762381Y-102674819D01*
X124762381Y-102008152D02*
X124381429Y-102389104D01*
X125143334Y-102674819D02*
X125381429Y-102674819D01*
X125381429Y-102674819D02*
X125381429Y-102484342D01*
X125381429Y-102484342D02*
X125286191Y-102436723D01*
X125286191Y-102436723D02*
X125190953Y-102341485D01*
X125190953Y-102341485D02*
X125143334Y-102198628D01*
X125143334Y-102198628D02*
X125143334Y-101960533D01*
X125143334Y-101960533D02*
X125190953Y-101817676D01*
X125190953Y-101817676D02*
X125286191Y-101722438D01*
X125286191Y-101722438D02*
X125429048Y-101674819D01*
X125429048Y-101674819D02*
X125619524Y-101674819D01*
X125619524Y-101674819D02*
X125762381Y-101722438D01*
X125762381Y-101722438D02*
X125857619Y-101817676D01*
X125857619Y-101817676D02*
X125905238Y-101960533D01*
X125905238Y-101960533D02*
X125905238Y-102198628D01*
X125905238Y-102198628D02*
X125857619Y-102341485D01*
X125857619Y-102341485D02*
X125762381Y-102436723D01*
X125762381Y-102436723D02*
X125667143Y-102484342D01*
X125667143Y-102484342D02*
X125667143Y-102674819D01*
X125667143Y-102674819D02*
X125905238Y-102674819D01*
X167521905Y-96894819D02*
X167521905Y-95894819D01*
X167521905Y-95894819D02*
X167760000Y-95894819D01*
X167760000Y-95894819D02*
X167902857Y-95942438D01*
X167902857Y-95942438D02*
X167998095Y-96037676D01*
X167998095Y-96037676D02*
X168045714Y-96132914D01*
X168045714Y-96132914D02*
X168093333Y-96323390D01*
X168093333Y-96323390D02*
X168093333Y-96466247D01*
X168093333Y-96466247D02*
X168045714Y-96656723D01*
X168045714Y-96656723D02*
X167998095Y-96751961D01*
X167998095Y-96751961D02*
X167902857Y-96847200D01*
X167902857Y-96847200D02*
X167760000Y-96894819D01*
X167760000Y-96894819D02*
X167521905Y-96894819D01*
X168426667Y-95894819D02*
X169045714Y-95894819D01*
X169045714Y-95894819D02*
X168712381Y-96275771D01*
X168712381Y-96275771D02*
X168855238Y-96275771D01*
X168855238Y-96275771D02*
X168950476Y-96323390D01*
X168950476Y-96323390D02*
X168998095Y-96371009D01*
X168998095Y-96371009D02*
X169045714Y-96466247D01*
X169045714Y-96466247D02*
X169045714Y-96704342D01*
X169045714Y-96704342D02*
X168998095Y-96799580D01*
X168998095Y-96799580D02*
X168950476Y-96847200D01*
X168950476Y-96847200D02*
X168855238Y-96894819D01*
X168855238Y-96894819D02*
X168569524Y-96894819D01*
X168569524Y-96894819D02*
X168474286Y-96847200D01*
X168474286Y-96847200D02*
X168426667Y-96799580D01*
X164593332Y-103978628D02*
X164593332Y-104454819D01*
X164259999Y-103454819D02*
X164593332Y-103978628D01*
X164593332Y-103978628D02*
X164926665Y-103454819D01*
X165640951Y-104407200D02*
X165545713Y-104454819D01*
X165545713Y-104454819D02*
X165355237Y-104454819D01*
X165355237Y-104454819D02*
X165259999Y-104407200D01*
X165259999Y-104407200D02*
X165212380Y-104311961D01*
X165212380Y-104311961D02*
X165212380Y-103931009D01*
X165212380Y-103931009D02*
X165259999Y-103835771D01*
X165259999Y-103835771D02*
X165355237Y-103788152D01*
X165355237Y-103788152D02*
X165545713Y-103788152D01*
X165545713Y-103788152D02*
X165640951Y-103835771D01*
X165640951Y-103835771D02*
X165688570Y-103931009D01*
X165688570Y-103931009D02*
X165688570Y-104026247D01*
X165688570Y-104026247D02*
X165212380Y-104121485D01*
X166259999Y-104454819D02*
X166164761Y-104407200D01*
X166164761Y-104407200D02*
X166117142Y-104311961D01*
X166117142Y-104311961D02*
X166117142Y-103454819D01*
X166783809Y-104454819D02*
X166688571Y-104407200D01*
X166688571Y-104407200D02*
X166640952Y-104311961D01*
X166640952Y-104311961D02*
X166640952Y-103454819D01*
X167307619Y-104454819D02*
X167212381Y-104407200D01*
X167212381Y-104407200D02*
X167164762Y-104359580D01*
X167164762Y-104359580D02*
X167117143Y-104264342D01*
X167117143Y-104264342D02*
X167117143Y-103978628D01*
X167117143Y-103978628D02*
X167164762Y-103883390D01*
X167164762Y-103883390D02*
X167212381Y-103835771D01*
X167212381Y-103835771D02*
X167307619Y-103788152D01*
X167307619Y-103788152D02*
X167450476Y-103788152D01*
X167450476Y-103788152D02*
X167545714Y-103835771D01*
X167545714Y-103835771D02*
X167593333Y-103883390D01*
X167593333Y-103883390D02*
X167640952Y-103978628D01*
X167640952Y-103978628D02*
X167640952Y-104264342D01*
X167640952Y-104264342D02*
X167593333Y-104359580D01*
X167593333Y-104359580D02*
X167545714Y-104407200D01*
X167545714Y-104407200D02*
X167450476Y-104454819D01*
X167450476Y-104454819D02*
X167307619Y-104454819D01*
X167974286Y-103788152D02*
X168164762Y-104454819D01*
X168164762Y-104454819D02*
X168355238Y-103978628D01*
X168355238Y-103978628D02*
X168545714Y-104454819D01*
X168545714Y-104454819D02*
X168736190Y-103788152D01*
X170355238Y-104454819D02*
X169879048Y-104454819D01*
X169879048Y-104454819D02*
X169879048Y-103454819D01*
X170688572Y-103931009D02*
X171021905Y-103931009D01*
X171164762Y-104454819D02*
X170688572Y-104454819D01*
X170688572Y-104454819D02*
X170688572Y-103454819D01*
X170688572Y-103454819D02*
X171164762Y-103454819D01*
X171593334Y-104454819D02*
X171593334Y-103454819D01*
X171593334Y-103454819D02*
X171831429Y-103454819D01*
X171831429Y-103454819D02*
X171974286Y-103502438D01*
X171974286Y-103502438D02*
X172069524Y-103597676D01*
X172069524Y-103597676D02*
X172117143Y-103692914D01*
X172117143Y-103692914D02*
X172164762Y-103883390D01*
X172164762Y-103883390D02*
X172164762Y-104026247D01*
X172164762Y-104026247D02*
X172117143Y-104216723D01*
X172117143Y-104216723D02*
X172069524Y-104311961D01*
X172069524Y-104311961D02*
X171974286Y-104407200D01*
X171974286Y-104407200D02*
X171831429Y-104454819D01*
X171831429Y-104454819D02*
X171593334Y-104454819D01*
X128416905Y-96894819D02*
X128416905Y-95894819D01*
X128416905Y-95894819D02*
X128655000Y-95894819D01*
X128655000Y-95894819D02*
X128797857Y-95942438D01*
X128797857Y-95942438D02*
X128893095Y-96037676D01*
X128893095Y-96037676D02*
X128940714Y-96132914D01*
X128940714Y-96132914D02*
X128988333Y-96323390D01*
X128988333Y-96323390D02*
X128988333Y-96466247D01*
X128988333Y-96466247D02*
X128940714Y-96656723D01*
X128940714Y-96656723D02*
X128893095Y-96751961D01*
X128893095Y-96751961D02*
X128797857Y-96847200D01*
X128797857Y-96847200D02*
X128655000Y-96894819D01*
X128655000Y-96894819D02*
X128416905Y-96894819D01*
X129940714Y-96894819D02*
X129369286Y-96894819D01*
X129655000Y-96894819D02*
X129655000Y-95894819D01*
X129655000Y-95894819D02*
X129559762Y-96037676D01*
X129559762Y-96037676D02*
X129464524Y-96132914D01*
X129464524Y-96132914D02*
X129369286Y-96180533D01*
X125543332Y-103978628D02*
X125543332Y-104454819D01*
X125209999Y-103454819D02*
X125543332Y-103978628D01*
X125543332Y-103978628D02*
X125876665Y-103454819D01*
X126590951Y-104407200D02*
X126495713Y-104454819D01*
X126495713Y-104454819D02*
X126305237Y-104454819D01*
X126305237Y-104454819D02*
X126209999Y-104407200D01*
X126209999Y-104407200D02*
X126162380Y-104311961D01*
X126162380Y-104311961D02*
X126162380Y-103931009D01*
X126162380Y-103931009D02*
X126209999Y-103835771D01*
X126209999Y-103835771D02*
X126305237Y-103788152D01*
X126305237Y-103788152D02*
X126495713Y-103788152D01*
X126495713Y-103788152D02*
X126590951Y-103835771D01*
X126590951Y-103835771D02*
X126638570Y-103931009D01*
X126638570Y-103931009D02*
X126638570Y-104026247D01*
X126638570Y-104026247D02*
X126162380Y-104121485D01*
X127209999Y-104454819D02*
X127114761Y-104407200D01*
X127114761Y-104407200D02*
X127067142Y-104311961D01*
X127067142Y-104311961D02*
X127067142Y-103454819D01*
X127733809Y-104454819D02*
X127638571Y-104407200D01*
X127638571Y-104407200D02*
X127590952Y-104311961D01*
X127590952Y-104311961D02*
X127590952Y-103454819D01*
X128257619Y-104454819D02*
X128162381Y-104407200D01*
X128162381Y-104407200D02*
X128114762Y-104359580D01*
X128114762Y-104359580D02*
X128067143Y-104264342D01*
X128067143Y-104264342D02*
X128067143Y-103978628D01*
X128067143Y-103978628D02*
X128114762Y-103883390D01*
X128114762Y-103883390D02*
X128162381Y-103835771D01*
X128162381Y-103835771D02*
X128257619Y-103788152D01*
X128257619Y-103788152D02*
X128400476Y-103788152D01*
X128400476Y-103788152D02*
X128495714Y-103835771D01*
X128495714Y-103835771D02*
X128543333Y-103883390D01*
X128543333Y-103883390D02*
X128590952Y-103978628D01*
X128590952Y-103978628D02*
X128590952Y-104264342D01*
X128590952Y-104264342D02*
X128543333Y-104359580D01*
X128543333Y-104359580D02*
X128495714Y-104407200D01*
X128495714Y-104407200D02*
X128400476Y-104454819D01*
X128400476Y-104454819D02*
X128257619Y-104454819D01*
X128924286Y-103788152D02*
X129114762Y-104454819D01*
X129114762Y-104454819D02*
X129305238Y-103978628D01*
X129305238Y-103978628D02*
X129495714Y-104454819D01*
X129495714Y-104454819D02*
X129686190Y-103788152D01*
X131305238Y-104454819D02*
X130829048Y-104454819D01*
X130829048Y-104454819D02*
X130829048Y-103454819D01*
X131638572Y-103931009D02*
X131971905Y-103931009D01*
X132114762Y-104454819D02*
X131638572Y-104454819D01*
X131638572Y-104454819D02*
X131638572Y-103454819D01*
X131638572Y-103454819D02*
X132114762Y-103454819D01*
X132543334Y-104454819D02*
X132543334Y-103454819D01*
X132543334Y-103454819D02*
X132781429Y-103454819D01*
X132781429Y-103454819D02*
X132924286Y-103502438D01*
X132924286Y-103502438D02*
X133019524Y-103597676D01*
X133019524Y-103597676D02*
X133067143Y-103692914D01*
X133067143Y-103692914D02*
X133114762Y-103883390D01*
X133114762Y-103883390D02*
X133114762Y-104026247D01*
X133114762Y-104026247D02*
X133067143Y-104216723D01*
X133067143Y-104216723D02*
X133019524Y-104311961D01*
X133019524Y-104311961D02*
X132924286Y-104407200D01*
X132924286Y-104407200D02*
X132781429Y-104454819D01*
X132781429Y-104454819D02*
X132543334Y-104454819D01*
X173367142Y-78034819D02*
X173033809Y-77558628D01*
X172795714Y-78034819D02*
X172795714Y-77034819D01*
X172795714Y-77034819D02*
X173176666Y-77034819D01*
X173176666Y-77034819D02*
X173271904Y-77082438D01*
X173271904Y-77082438D02*
X173319523Y-77130057D01*
X173319523Y-77130057D02*
X173367142Y-77225295D01*
X173367142Y-77225295D02*
X173367142Y-77368152D01*
X173367142Y-77368152D02*
X173319523Y-77463390D01*
X173319523Y-77463390D02*
X173271904Y-77511009D01*
X173271904Y-77511009D02*
X173176666Y-77558628D01*
X173176666Y-77558628D02*
X172795714Y-77558628D01*
X174319523Y-78034819D02*
X173748095Y-78034819D01*
X174033809Y-78034819D02*
X174033809Y-77034819D01*
X174033809Y-77034819D02*
X173938571Y-77177676D01*
X173938571Y-77177676D02*
X173843333Y-77272914D01*
X173843333Y-77272914D02*
X173748095Y-77320533D01*
X174700476Y-77130057D02*
X174748095Y-77082438D01*
X174748095Y-77082438D02*
X174843333Y-77034819D01*
X174843333Y-77034819D02*
X175081428Y-77034819D01*
X175081428Y-77034819D02*
X175176666Y-77082438D01*
X175176666Y-77082438D02*
X175224285Y-77130057D01*
X175224285Y-77130057D02*
X175271904Y-77225295D01*
X175271904Y-77225295D02*
X175271904Y-77320533D01*
X175271904Y-77320533D02*
X175224285Y-77463390D01*
X175224285Y-77463390D02*
X174652857Y-78034819D01*
X174652857Y-78034819D02*
X175271904Y-78034819D01*
X171819524Y-80770057D02*
X171867143Y-80722438D01*
X171867143Y-80722438D02*
X171962381Y-80674819D01*
X171962381Y-80674819D02*
X172200476Y-80674819D01*
X172200476Y-80674819D02*
X172295714Y-80722438D01*
X172295714Y-80722438D02*
X172343333Y-80770057D01*
X172343333Y-80770057D02*
X172390952Y-80865295D01*
X172390952Y-80865295D02*
X172390952Y-80960533D01*
X172390952Y-80960533D02*
X172343333Y-81103390D01*
X172343333Y-81103390D02*
X171771905Y-81674819D01*
X171771905Y-81674819D02*
X172390952Y-81674819D01*
X172771905Y-80770057D02*
X172819524Y-80722438D01*
X172819524Y-80722438D02*
X172914762Y-80674819D01*
X172914762Y-80674819D02*
X173152857Y-80674819D01*
X173152857Y-80674819D02*
X173248095Y-80722438D01*
X173248095Y-80722438D02*
X173295714Y-80770057D01*
X173295714Y-80770057D02*
X173343333Y-80865295D01*
X173343333Y-80865295D02*
X173343333Y-80960533D01*
X173343333Y-80960533D02*
X173295714Y-81103390D01*
X173295714Y-81103390D02*
X172724286Y-81674819D01*
X172724286Y-81674819D02*
X173343333Y-81674819D01*
X173962381Y-80674819D02*
X174057619Y-80674819D01*
X174057619Y-80674819D02*
X174152857Y-80722438D01*
X174152857Y-80722438D02*
X174200476Y-80770057D01*
X174200476Y-80770057D02*
X174248095Y-80865295D01*
X174248095Y-80865295D02*
X174295714Y-81055771D01*
X174295714Y-81055771D02*
X174295714Y-81293866D01*
X174295714Y-81293866D02*
X174248095Y-81484342D01*
X174248095Y-81484342D02*
X174200476Y-81579580D01*
X174200476Y-81579580D02*
X174152857Y-81627200D01*
X174152857Y-81627200D02*
X174057619Y-81674819D01*
X174057619Y-81674819D02*
X173962381Y-81674819D01*
X173962381Y-81674819D02*
X173867143Y-81627200D01*
X173867143Y-81627200D02*
X173819524Y-81579580D01*
X173819524Y-81579580D02*
X173771905Y-81484342D01*
X173771905Y-81484342D02*
X173724286Y-81293866D01*
X173724286Y-81293866D02*
X173724286Y-81055771D01*
X173724286Y-81055771D02*
X173771905Y-80865295D01*
X173771905Y-80865295D02*
X173819524Y-80770057D01*
X173819524Y-80770057D02*
X173867143Y-80722438D01*
X173867143Y-80722438D02*
X173962381Y-80674819D01*
X175438572Y-81674819D02*
X175676667Y-81674819D01*
X175676667Y-81674819D02*
X175676667Y-81484342D01*
X175676667Y-81484342D02*
X175581429Y-81436723D01*
X175581429Y-81436723D02*
X175486191Y-81341485D01*
X175486191Y-81341485D02*
X175438572Y-81198628D01*
X175438572Y-81198628D02*
X175438572Y-80960533D01*
X175438572Y-80960533D02*
X175486191Y-80817676D01*
X175486191Y-80817676D02*
X175581429Y-80722438D01*
X175581429Y-80722438D02*
X175724286Y-80674819D01*
X175724286Y-80674819D02*
X175914762Y-80674819D01*
X175914762Y-80674819D02*
X176057619Y-80722438D01*
X176057619Y-80722438D02*
X176152857Y-80817676D01*
X176152857Y-80817676D02*
X176200476Y-80960533D01*
X176200476Y-80960533D02*
X176200476Y-81198628D01*
X176200476Y-81198628D02*
X176152857Y-81341485D01*
X176152857Y-81341485D02*
X176057619Y-81436723D01*
X176057619Y-81436723D02*
X175962381Y-81484342D01*
X175962381Y-81484342D02*
X175962381Y-81674819D01*
X175962381Y-81674819D02*
X176200476Y-81674819D01*
X128366905Y-76154819D02*
X128366905Y-75154819D01*
X128366905Y-75154819D02*
X128605000Y-75154819D01*
X128605000Y-75154819D02*
X128747857Y-75202438D01*
X128747857Y-75202438D02*
X128843095Y-75297676D01*
X128843095Y-75297676D02*
X128890714Y-75392914D01*
X128890714Y-75392914D02*
X128938333Y-75583390D01*
X128938333Y-75583390D02*
X128938333Y-75726247D01*
X128938333Y-75726247D02*
X128890714Y-75916723D01*
X128890714Y-75916723D02*
X128843095Y-76011961D01*
X128843095Y-76011961D02*
X128747857Y-76107200D01*
X128747857Y-76107200D02*
X128605000Y-76154819D01*
X128605000Y-76154819D02*
X128366905Y-76154819D01*
X129795476Y-75488152D02*
X129795476Y-76154819D01*
X129557381Y-75107200D02*
X129319286Y-75821485D01*
X129319286Y-75821485D02*
X129938333Y-75821485D01*
X126845475Y-83814819D02*
X126512142Y-83338628D01*
X126274047Y-83814819D02*
X126274047Y-82814819D01*
X126274047Y-82814819D02*
X126654999Y-82814819D01*
X126654999Y-82814819D02*
X126750237Y-82862438D01*
X126750237Y-82862438D02*
X126797856Y-82910057D01*
X126797856Y-82910057D02*
X126845475Y-83005295D01*
X126845475Y-83005295D02*
X126845475Y-83148152D01*
X126845475Y-83148152D02*
X126797856Y-83243390D01*
X126797856Y-83243390D02*
X126750237Y-83291009D01*
X126750237Y-83291009D02*
X126654999Y-83338628D01*
X126654999Y-83338628D02*
X126274047Y-83338628D01*
X127654999Y-83767200D02*
X127559761Y-83814819D01*
X127559761Y-83814819D02*
X127369285Y-83814819D01*
X127369285Y-83814819D02*
X127274047Y-83767200D01*
X127274047Y-83767200D02*
X127226428Y-83671961D01*
X127226428Y-83671961D02*
X127226428Y-83291009D01*
X127226428Y-83291009D02*
X127274047Y-83195771D01*
X127274047Y-83195771D02*
X127369285Y-83148152D01*
X127369285Y-83148152D02*
X127559761Y-83148152D01*
X127559761Y-83148152D02*
X127654999Y-83195771D01*
X127654999Y-83195771D02*
X127702618Y-83291009D01*
X127702618Y-83291009D02*
X127702618Y-83386247D01*
X127702618Y-83386247D02*
X127226428Y-83481485D01*
X128559761Y-83814819D02*
X128559761Y-82814819D01*
X128559761Y-83767200D02*
X128464523Y-83814819D01*
X128464523Y-83814819D02*
X128274047Y-83814819D01*
X128274047Y-83814819D02*
X128178809Y-83767200D01*
X128178809Y-83767200D02*
X128131190Y-83719580D01*
X128131190Y-83719580D02*
X128083571Y-83624342D01*
X128083571Y-83624342D02*
X128083571Y-83338628D01*
X128083571Y-83338628D02*
X128131190Y-83243390D01*
X128131190Y-83243390D02*
X128178809Y-83195771D01*
X128178809Y-83195771D02*
X128274047Y-83148152D01*
X128274047Y-83148152D02*
X128464523Y-83148152D01*
X128464523Y-83148152D02*
X128559761Y-83195771D01*
X130274047Y-83814819D02*
X129797857Y-83814819D01*
X129797857Y-83814819D02*
X129797857Y-82814819D01*
X130607381Y-83291009D02*
X130940714Y-83291009D01*
X131083571Y-83814819D02*
X130607381Y-83814819D01*
X130607381Y-83814819D02*
X130607381Y-82814819D01*
X130607381Y-82814819D02*
X131083571Y-82814819D01*
X131512143Y-83814819D02*
X131512143Y-82814819D01*
X131512143Y-82814819D02*
X131750238Y-82814819D01*
X131750238Y-82814819D02*
X131893095Y-82862438D01*
X131893095Y-82862438D02*
X131988333Y-82957676D01*
X131988333Y-82957676D02*
X132035952Y-83052914D01*
X132035952Y-83052914D02*
X132083571Y-83243390D01*
X132083571Y-83243390D02*
X132083571Y-83386247D01*
X132083571Y-83386247D02*
X132035952Y-83576723D01*
X132035952Y-83576723D02*
X131988333Y-83671961D01*
X131988333Y-83671961D02*
X131893095Y-83767200D01*
X131893095Y-83767200D02*
X131750238Y-83814819D01*
X131750238Y-83814819D02*
X131512143Y-83814819D01*
X167571905Y-76154819D02*
X167571905Y-75154819D01*
X167571905Y-75154819D02*
X167810000Y-75154819D01*
X167810000Y-75154819D02*
X167952857Y-75202438D01*
X167952857Y-75202438D02*
X168048095Y-75297676D01*
X168048095Y-75297676D02*
X168095714Y-75392914D01*
X168095714Y-75392914D02*
X168143333Y-75583390D01*
X168143333Y-75583390D02*
X168143333Y-75726247D01*
X168143333Y-75726247D02*
X168095714Y-75916723D01*
X168095714Y-75916723D02*
X168048095Y-76011961D01*
X168048095Y-76011961D02*
X167952857Y-76107200D01*
X167952857Y-76107200D02*
X167810000Y-76154819D01*
X167810000Y-76154819D02*
X167571905Y-76154819D01*
X169000476Y-75154819D02*
X168810000Y-75154819D01*
X168810000Y-75154819D02*
X168714762Y-75202438D01*
X168714762Y-75202438D02*
X168667143Y-75250057D01*
X168667143Y-75250057D02*
X168571905Y-75392914D01*
X168571905Y-75392914D02*
X168524286Y-75583390D01*
X168524286Y-75583390D02*
X168524286Y-75964342D01*
X168524286Y-75964342D02*
X168571905Y-76059580D01*
X168571905Y-76059580D02*
X168619524Y-76107200D01*
X168619524Y-76107200D02*
X168714762Y-76154819D01*
X168714762Y-76154819D02*
X168905238Y-76154819D01*
X168905238Y-76154819D02*
X169000476Y-76107200D01*
X169000476Y-76107200D02*
X169048095Y-76059580D01*
X169048095Y-76059580D02*
X169095714Y-75964342D01*
X169095714Y-75964342D02*
X169095714Y-75726247D01*
X169095714Y-75726247D02*
X169048095Y-75631009D01*
X169048095Y-75631009D02*
X169000476Y-75583390D01*
X169000476Y-75583390D02*
X168905238Y-75535771D01*
X168905238Y-75535771D02*
X168714762Y-75535771D01*
X168714762Y-75535771D02*
X168619524Y-75583390D01*
X168619524Y-75583390D02*
X168571905Y-75631009D01*
X168571905Y-75631009D02*
X168524286Y-75726247D01*
X165950475Y-83814819D02*
X165617142Y-83338628D01*
X165379047Y-83814819D02*
X165379047Y-82814819D01*
X165379047Y-82814819D02*
X165759999Y-82814819D01*
X165759999Y-82814819D02*
X165855237Y-82862438D01*
X165855237Y-82862438D02*
X165902856Y-82910057D01*
X165902856Y-82910057D02*
X165950475Y-83005295D01*
X165950475Y-83005295D02*
X165950475Y-83148152D01*
X165950475Y-83148152D02*
X165902856Y-83243390D01*
X165902856Y-83243390D02*
X165855237Y-83291009D01*
X165855237Y-83291009D02*
X165759999Y-83338628D01*
X165759999Y-83338628D02*
X165379047Y-83338628D01*
X166759999Y-83767200D02*
X166664761Y-83814819D01*
X166664761Y-83814819D02*
X166474285Y-83814819D01*
X166474285Y-83814819D02*
X166379047Y-83767200D01*
X166379047Y-83767200D02*
X166331428Y-83671961D01*
X166331428Y-83671961D02*
X166331428Y-83291009D01*
X166331428Y-83291009D02*
X166379047Y-83195771D01*
X166379047Y-83195771D02*
X166474285Y-83148152D01*
X166474285Y-83148152D02*
X166664761Y-83148152D01*
X166664761Y-83148152D02*
X166759999Y-83195771D01*
X166759999Y-83195771D02*
X166807618Y-83291009D01*
X166807618Y-83291009D02*
X166807618Y-83386247D01*
X166807618Y-83386247D02*
X166331428Y-83481485D01*
X167664761Y-83814819D02*
X167664761Y-82814819D01*
X167664761Y-83767200D02*
X167569523Y-83814819D01*
X167569523Y-83814819D02*
X167379047Y-83814819D01*
X167379047Y-83814819D02*
X167283809Y-83767200D01*
X167283809Y-83767200D02*
X167236190Y-83719580D01*
X167236190Y-83719580D02*
X167188571Y-83624342D01*
X167188571Y-83624342D02*
X167188571Y-83338628D01*
X167188571Y-83338628D02*
X167236190Y-83243390D01*
X167236190Y-83243390D02*
X167283809Y-83195771D01*
X167283809Y-83195771D02*
X167379047Y-83148152D01*
X167379047Y-83148152D02*
X167569523Y-83148152D01*
X167569523Y-83148152D02*
X167664761Y-83195771D01*
X169379047Y-83814819D02*
X168902857Y-83814819D01*
X168902857Y-83814819D02*
X168902857Y-82814819D01*
X169712381Y-83291009D02*
X170045714Y-83291009D01*
X170188571Y-83814819D02*
X169712381Y-83814819D01*
X169712381Y-83814819D02*
X169712381Y-82814819D01*
X169712381Y-82814819D02*
X170188571Y-82814819D01*
X170617143Y-83814819D02*
X170617143Y-82814819D01*
X170617143Y-82814819D02*
X170855238Y-82814819D01*
X170855238Y-82814819D02*
X170998095Y-82862438D01*
X170998095Y-82862438D02*
X171093333Y-82957676D01*
X171093333Y-82957676D02*
X171140952Y-83052914D01*
X171140952Y-83052914D02*
X171188571Y-83243390D01*
X171188571Y-83243390D02*
X171188571Y-83386247D01*
X171188571Y-83386247D02*
X171140952Y-83576723D01*
X171140952Y-83576723D02*
X171093333Y-83671961D01*
X171093333Y-83671961D02*
X170998095Y-83767200D01*
X170998095Y-83767200D02*
X170855238Y-83814819D01*
X170855238Y-83814819D02*
X170617143Y-83814819D01*
X137367142Y-87634819D02*
X137033809Y-87158628D01*
X136795714Y-87634819D02*
X136795714Y-86634819D01*
X136795714Y-86634819D02*
X137176666Y-86634819D01*
X137176666Y-86634819D02*
X137271904Y-86682438D01*
X137271904Y-86682438D02*
X137319523Y-86730057D01*
X137319523Y-86730057D02*
X137367142Y-86825295D01*
X137367142Y-86825295D02*
X137367142Y-86968152D01*
X137367142Y-86968152D02*
X137319523Y-87063390D01*
X137319523Y-87063390D02*
X137271904Y-87111009D01*
X137271904Y-87111009D02*
X137176666Y-87158628D01*
X137176666Y-87158628D02*
X136795714Y-87158628D01*
X138319523Y-87634819D02*
X137748095Y-87634819D01*
X138033809Y-87634819D02*
X138033809Y-86634819D01*
X138033809Y-86634819D02*
X137938571Y-86777676D01*
X137938571Y-86777676D02*
X137843333Y-86872914D01*
X137843333Y-86872914D02*
X137748095Y-86920533D01*
X138652857Y-86634819D02*
X139271904Y-86634819D01*
X139271904Y-86634819D02*
X138938571Y-87015771D01*
X138938571Y-87015771D02*
X139081428Y-87015771D01*
X139081428Y-87015771D02*
X139176666Y-87063390D01*
X139176666Y-87063390D02*
X139224285Y-87111009D01*
X139224285Y-87111009D02*
X139271904Y-87206247D01*
X139271904Y-87206247D02*
X139271904Y-87444342D01*
X139271904Y-87444342D02*
X139224285Y-87539580D01*
X139224285Y-87539580D02*
X139176666Y-87587200D01*
X139176666Y-87587200D02*
X139081428Y-87634819D01*
X139081428Y-87634819D02*
X138795714Y-87634819D01*
X138795714Y-87634819D02*
X138700476Y-87587200D01*
X138700476Y-87587200D02*
X138652857Y-87539580D01*
X136462380Y-91274819D02*
X135890952Y-91274819D01*
X136176666Y-91274819D02*
X136176666Y-90274819D01*
X136176666Y-90274819D02*
X136081428Y-90417676D01*
X136081428Y-90417676D02*
X135986190Y-90512914D01*
X135986190Y-90512914D02*
X135890952Y-90560533D01*
X137081428Y-90274819D02*
X137176666Y-90274819D01*
X137176666Y-90274819D02*
X137271904Y-90322438D01*
X137271904Y-90322438D02*
X137319523Y-90370057D01*
X137319523Y-90370057D02*
X137367142Y-90465295D01*
X137367142Y-90465295D02*
X137414761Y-90655771D01*
X137414761Y-90655771D02*
X137414761Y-90893866D01*
X137414761Y-90893866D02*
X137367142Y-91084342D01*
X137367142Y-91084342D02*
X137319523Y-91179580D01*
X137319523Y-91179580D02*
X137271904Y-91227200D01*
X137271904Y-91227200D02*
X137176666Y-91274819D01*
X137176666Y-91274819D02*
X137081428Y-91274819D01*
X137081428Y-91274819D02*
X136986190Y-91227200D01*
X136986190Y-91227200D02*
X136938571Y-91179580D01*
X136938571Y-91179580D02*
X136890952Y-91084342D01*
X136890952Y-91084342D02*
X136843333Y-90893866D01*
X136843333Y-90893866D02*
X136843333Y-90655771D01*
X136843333Y-90655771D02*
X136890952Y-90465295D01*
X136890952Y-90465295D02*
X136938571Y-90370057D01*
X136938571Y-90370057D02*
X136986190Y-90322438D01*
X136986190Y-90322438D02*
X137081428Y-90274819D01*
X138605238Y-91274819D02*
X138605238Y-90274819D01*
X138700476Y-90893866D02*
X138986190Y-91274819D01*
X138986190Y-90608152D02*
X138605238Y-90989104D01*
X139367143Y-91274819D02*
X139605238Y-91274819D01*
X139605238Y-91274819D02*
X139605238Y-91084342D01*
X139605238Y-91084342D02*
X139510000Y-91036723D01*
X139510000Y-91036723D02*
X139414762Y-90941485D01*
X139414762Y-90941485D02*
X139367143Y-90798628D01*
X139367143Y-90798628D02*
X139367143Y-90560533D01*
X139367143Y-90560533D02*
X139414762Y-90417676D01*
X139414762Y-90417676D02*
X139510000Y-90322438D01*
X139510000Y-90322438D02*
X139652857Y-90274819D01*
X139652857Y-90274819D02*
X139843333Y-90274819D01*
X139843333Y-90274819D02*
X139986190Y-90322438D01*
X139986190Y-90322438D02*
X140081428Y-90417676D01*
X140081428Y-90417676D02*
X140129047Y-90560533D01*
X140129047Y-90560533D02*
X140129047Y-90798628D01*
X140129047Y-90798628D02*
X140081428Y-90941485D01*
X140081428Y-90941485D02*
X139986190Y-91036723D01*
X139986190Y-91036723D02*
X139890952Y-91084342D01*
X139890952Y-91084342D02*
X139890952Y-91274819D01*
X139890952Y-91274819D02*
X140129047Y-91274819D01*
X161867142Y-78034819D02*
X161533809Y-77558628D01*
X161295714Y-78034819D02*
X161295714Y-77034819D01*
X161295714Y-77034819D02*
X161676666Y-77034819D01*
X161676666Y-77034819D02*
X161771904Y-77082438D01*
X161771904Y-77082438D02*
X161819523Y-77130057D01*
X161819523Y-77130057D02*
X161867142Y-77225295D01*
X161867142Y-77225295D02*
X161867142Y-77368152D01*
X161867142Y-77368152D02*
X161819523Y-77463390D01*
X161819523Y-77463390D02*
X161771904Y-77511009D01*
X161771904Y-77511009D02*
X161676666Y-77558628D01*
X161676666Y-77558628D02*
X161295714Y-77558628D01*
X162819523Y-78034819D02*
X162248095Y-78034819D01*
X162533809Y-78034819D02*
X162533809Y-77034819D01*
X162533809Y-77034819D02*
X162438571Y-77177676D01*
X162438571Y-77177676D02*
X162343333Y-77272914D01*
X162343333Y-77272914D02*
X162248095Y-77320533D01*
X163771904Y-78034819D02*
X163200476Y-78034819D01*
X163486190Y-78034819D02*
X163486190Y-77034819D01*
X163486190Y-77034819D02*
X163390952Y-77177676D01*
X163390952Y-77177676D02*
X163295714Y-77272914D01*
X163295714Y-77272914D02*
X163200476Y-77320533D01*
X160486190Y-81674819D02*
X159914762Y-81674819D01*
X160200476Y-81674819D02*
X160200476Y-80674819D01*
X160200476Y-80674819D02*
X160105238Y-80817676D01*
X160105238Y-80817676D02*
X160010000Y-80912914D01*
X160010000Y-80912914D02*
X159914762Y-80960533D01*
X161105238Y-80674819D02*
X161200476Y-80674819D01*
X161200476Y-80674819D02*
X161295714Y-80722438D01*
X161295714Y-80722438D02*
X161343333Y-80770057D01*
X161343333Y-80770057D02*
X161390952Y-80865295D01*
X161390952Y-80865295D02*
X161438571Y-81055771D01*
X161438571Y-81055771D02*
X161438571Y-81293866D01*
X161438571Y-81293866D02*
X161390952Y-81484342D01*
X161390952Y-81484342D02*
X161343333Y-81579580D01*
X161343333Y-81579580D02*
X161295714Y-81627200D01*
X161295714Y-81627200D02*
X161200476Y-81674819D01*
X161200476Y-81674819D02*
X161105238Y-81674819D01*
X161105238Y-81674819D02*
X161010000Y-81627200D01*
X161010000Y-81627200D02*
X160962381Y-81579580D01*
X160962381Y-81579580D02*
X160914762Y-81484342D01*
X160914762Y-81484342D02*
X160867143Y-81293866D01*
X160867143Y-81293866D02*
X160867143Y-81055771D01*
X160867143Y-81055771D02*
X160914762Y-80865295D01*
X160914762Y-80865295D02*
X160962381Y-80770057D01*
X160962381Y-80770057D02*
X161010000Y-80722438D01*
X161010000Y-80722438D02*
X161105238Y-80674819D01*
X162057619Y-80674819D02*
X162152857Y-80674819D01*
X162152857Y-80674819D02*
X162248095Y-80722438D01*
X162248095Y-80722438D02*
X162295714Y-80770057D01*
X162295714Y-80770057D02*
X162343333Y-80865295D01*
X162343333Y-80865295D02*
X162390952Y-81055771D01*
X162390952Y-81055771D02*
X162390952Y-81293866D01*
X162390952Y-81293866D02*
X162343333Y-81484342D01*
X162343333Y-81484342D02*
X162295714Y-81579580D01*
X162295714Y-81579580D02*
X162248095Y-81627200D01*
X162248095Y-81627200D02*
X162152857Y-81674819D01*
X162152857Y-81674819D02*
X162057619Y-81674819D01*
X162057619Y-81674819D02*
X161962381Y-81627200D01*
X161962381Y-81627200D02*
X161914762Y-81579580D01*
X161914762Y-81579580D02*
X161867143Y-81484342D01*
X161867143Y-81484342D02*
X161819524Y-81293866D01*
X161819524Y-81293866D02*
X161819524Y-81055771D01*
X161819524Y-81055771D02*
X161867143Y-80865295D01*
X161867143Y-80865295D02*
X161914762Y-80770057D01*
X161914762Y-80770057D02*
X161962381Y-80722438D01*
X161962381Y-80722438D02*
X162057619Y-80674819D01*
X163581429Y-81674819D02*
X163581429Y-80674819D01*
X163676667Y-81293866D02*
X163962381Y-81674819D01*
X163962381Y-81008152D02*
X163581429Y-81389104D01*
X164343334Y-81674819D02*
X164581429Y-81674819D01*
X164581429Y-81674819D02*
X164581429Y-81484342D01*
X164581429Y-81484342D02*
X164486191Y-81436723D01*
X164486191Y-81436723D02*
X164390953Y-81341485D01*
X164390953Y-81341485D02*
X164343334Y-81198628D01*
X164343334Y-81198628D02*
X164343334Y-80960533D01*
X164343334Y-80960533D02*
X164390953Y-80817676D01*
X164390953Y-80817676D02*
X164486191Y-80722438D01*
X164486191Y-80722438D02*
X164629048Y-80674819D01*
X164629048Y-80674819D02*
X164819524Y-80674819D01*
X164819524Y-80674819D02*
X164962381Y-80722438D01*
X164962381Y-80722438D02*
X165057619Y-80817676D01*
X165057619Y-80817676D02*
X165105238Y-80960533D01*
X165105238Y-80960533D02*
X165105238Y-81198628D01*
X165105238Y-81198628D02*
X165057619Y-81341485D01*
X165057619Y-81341485D02*
X164962381Y-81436723D01*
X164962381Y-81436723D02*
X164867143Y-81484342D01*
X164867143Y-81484342D02*
X164867143Y-81674819D01*
X164867143Y-81674819D02*
X165105238Y-81674819D01*
X173943333Y-99034819D02*
X173610000Y-98558628D01*
X173371905Y-99034819D02*
X173371905Y-98034819D01*
X173371905Y-98034819D02*
X173752857Y-98034819D01*
X173752857Y-98034819D02*
X173848095Y-98082438D01*
X173848095Y-98082438D02*
X173895714Y-98130057D01*
X173895714Y-98130057D02*
X173943333Y-98225295D01*
X173943333Y-98225295D02*
X173943333Y-98368152D01*
X173943333Y-98368152D02*
X173895714Y-98463390D01*
X173895714Y-98463390D02*
X173848095Y-98511009D01*
X173848095Y-98511009D02*
X173752857Y-98558628D01*
X173752857Y-98558628D02*
X173371905Y-98558628D01*
X174800476Y-98034819D02*
X174610000Y-98034819D01*
X174610000Y-98034819D02*
X174514762Y-98082438D01*
X174514762Y-98082438D02*
X174467143Y-98130057D01*
X174467143Y-98130057D02*
X174371905Y-98272914D01*
X174371905Y-98272914D02*
X174324286Y-98463390D01*
X174324286Y-98463390D02*
X174324286Y-98844342D01*
X174324286Y-98844342D02*
X174371905Y-98939580D01*
X174371905Y-98939580D02*
X174419524Y-98987200D01*
X174419524Y-98987200D02*
X174514762Y-99034819D01*
X174514762Y-99034819D02*
X174705238Y-99034819D01*
X174705238Y-99034819D02*
X174800476Y-98987200D01*
X174800476Y-98987200D02*
X174848095Y-98939580D01*
X174848095Y-98939580D02*
X174895714Y-98844342D01*
X174895714Y-98844342D02*
X174895714Y-98606247D01*
X174895714Y-98606247D02*
X174848095Y-98511009D01*
X174848095Y-98511009D02*
X174800476Y-98463390D01*
X174800476Y-98463390D02*
X174705238Y-98415771D01*
X174705238Y-98415771D02*
X174514762Y-98415771D01*
X174514762Y-98415771D02*
X174419524Y-98463390D01*
X174419524Y-98463390D02*
X174371905Y-98511009D01*
X174371905Y-98511009D02*
X174324286Y-98606247D01*
X172490952Y-102674819D02*
X171919524Y-102674819D01*
X172205238Y-102674819D02*
X172205238Y-101674819D01*
X172205238Y-101674819D02*
X172110000Y-101817676D01*
X172110000Y-101817676D02*
X172014762Y-101912914D01*
X172014762Y-101912914D02*
X171919524Y-101960533D01*
X173110000Y-101674819D02*
X173205238Y-101674819D01*
X173205238Y-101674819D02*
X173300476Y-101722438D01*
X173300476Y-101722438D02*
X173348095Y-101770057D01*
X173348095Y-101770057D02*
X173395714Y-101865295D01*
X173395714Y-101865295D02*
X173443333Y-102055771D01*
X173443333Y-102055771D02*
X173443333Y-102293866D01*
X173443333Y-102293866D02*
X173395714Y-102484342D01*
X173395714Y-102484342D02*
X173348095Y-102579580D01*
X173348095Y-102579580D02*
X173300476Y-102627200D01*
X173300476Y-102627200D02*
X173205238Y-102674819D01*
X173205238Y-102674819D02*
X173110000Y-102674819D01*
X173110000Y-102674819D02*
X173014762Y-102627200D01*
X173014762Y-102627200D02*
X172967143Y-102579580D01*
X172967143Y-102579580D02*
X172919524Y-102484342D01*
X172919524Y-102484342D02*
X172871905Y-102293866D01*
X172871905Y-102293866D02*
X172871905Y-102055771D01*
X172871905Y-102055771D02*
X172919524Y-101865295D01*
X172919524Y-101865295D02*
X172967143Y-101770057D01*
X172967143Y-101770057D02*
X173014762Y-101722438D01*
X173014762Y-101722438D02*
X173110000Y-101674819D01*
X174062381Y-101674819D02*
X174157619Y-101674819D01*
X174157619Y-101674819D02*
X174252857Y-101722438D01*
X174252857Y-101722438D02*
X174300476Y-101770057D01*
X174300476Y-101770057D02*
X174348095Y-101865295D01*
X174348095Y-101865295D02*
X174395714Y-102055771D01*
X174395714Y-102055771D02*
X174395714Y-102293866D01*
X174395714Y-102293866D02*
X174348095Y-102484342D01*
X174348095Y-102484342D02*
X174300476Y-102579580D01*
X174300476Y-102579580D02*
X174252857Y-102627200D01*
X174252857Y-102627200D02*
X174157619Y-102674819D01*
X174157619Y-102674819D02*
X174062381Y-102674819D01*
X174062381Y-102674819D02*
X173967143Y-102627200D01*
X173967143Y-102627200D02*
X173919524Y-102579580D01*
X173919524Y-102579580D02*
X173871905Y-102484342D01*
X173871905Y-102484342D02*
X173824286Y-102293866D01*
X173824286Y-102293866D02*
X173824286Y-102055771D01*
X173824286Y-102055771D02*
X173871905Y-101865295D01*
X173871905Y-101865295D02*
X173919524Y-101770057D01*
X173919524Y-101770057D02*
X173967143Y-101722438D01*
X173967143Y-101722438D02*
X174062381Y-101674819D01*
X175538572Y-102674819D02*
X175776667Y-102674819D01*
X175776667Y-102674819D02*
X175776667Y-102484342D01*
X175776667Y-102484342D02*
X175681429Y-102436723D01*
X175681429Y-102436723D02*
X175586191Y-102341485D01*
X175586191Y-102341485D02*
X175538572Y-102198628D01*
X175538572Y-102198628D02*
X175538572Y-101960533D01*
X175538572Y-101960533D02*
X175586191Y-101817676D01*
X175586191Y-101817676D02*
X175681429Y-101722438D01*
X175681429Y-101722438D02*
X175824286Y-101674819D01*
X175824286Y-101674819D02*
X176014762Y-101674819D01*
X176014762Y-101674819D02*
X176157619Y-101722438D01*
X176157619Y-101722438D02*
X176252857Y-101817676D01*
X176252857Y-101817676D02*
X176300476Y-101960533D01*
X176300476Y-101960533D02*
X176300476Y-102198628D01*
X176300476Y-102198628D02*
X176252857Y-102341485D01*
X176252857Y-102341485D02*
X176157619Y-102436723D01*
X176157619Y-102436723D02*
X176062381Y-102484342D01*
X176062381Y-102484342D02*
X176062381Y-102674819D01*
X176062381Y-102674819D02*
X176300476Y-102674819D01*
X147971905Y-76154819D02*
X147971905Y-75154819D01*
X147971905Y-75154819D02*
X148210000Y-75154819D01*
X148210000Y-75154819D02*
X148352857Y-75202438D01*
X148352857Y-75202438D02*
X148448095Y-75297676D01*
X148448095Y-75297676D02*
X148495714Y-75392914D01*
X148495714Y-75392914D02*
X148543333Y-75583390D01*
X148543333Y-75583390D02*
X148543333Y-75726247D01*
X148543333Y-75726247D02*
X148495714Y-75916723D01*
X148495714Y-75916723D02*
X148448095Y-76011961D01*
X148448095Y-76011961D02*
X148352857Y-76107200D01*
X148352857Y-76107200D02*
X148210000Y-76154819D01*
X148210000Y-76154819D02*
X147971905Y-76154819D01*
X149448095Y-75154819D02*
X148971905Y-75154819D01*
X148971905Y-75154819D02*
X148924286Y-75631009D01*
X148924286Y-75631009D02*
X148971905Y-75583390D01*
X148971905Y-75583390D02*
X149067143Y-75535771D01*
X149067143Y-75535771D02*
X149305238Y-75535771D01*
X149305238Y-75535771D02*
X149400476Y-75583390D01*
X149400476Y-75583390D02*
X149448095Y-75631009D01*
X149448095Y-75631009D02*
X149495714Y-75726247D01*
X149495714Y-75726247D02*
X149495714Y-75964342D01*
X149495714Y-75964342D02*
X149448095Y-76059580D01*
X149448095Y-76059580D02*
X149400476Y-76107200D01*
X149400476Y-76107200D02*
X149305238Y-76154819D01*
X149305238Y-76154819D02*
X149067143Y-76154819D01*
X149067143Y-76154819D02*
X148971905Y-76107200D01*
X148971905Y-76107200D02*
X148924286Y-76059580D01*
X146400475Y-83814819D02*
X146067142Y-83338628D01*
X145829047Y-83814819D02*
X145829047Y-82814819D01*
X145829047Y-82814819D02*
X146209999Y-82814819D01*
X146209999Y-82814819D02*
X146305237Y-82862438D01*
X146305237Y-82862438D02*
X146352856Y-82910057D01*
X146352856Y-82910057D02*
X146400475Y-83005295D01*
X146400475Y-83005295D02*
X146400475Y-83148152D01*
X146400475Y-83148152D02*
X146352856Y-83243390D01*
X146352856Y-83243390D02*
X146305237Y-83291009D01*
X146305237Y-83291009D02*
X146209999Y-83338628D01*
X146209999Y-83338628D02*
X145829047Y-83338628D01*
X147209999Y-83767200D02*
X147114761Y-83814819D01*
X147114761Y-83814819D02*
X146924285Y-83814819D01*
X146924285Y-83814819D02*
X146829047Y-83767200D01*
X146829047Y-83767200D02*
X146781428Y-83671961D01*
X146781428Y-83671961D02*
X146781428Y-83291009D01*
X146781428Y-83291009D02*
X146829047Y-83195771D01*
X146829047Y-83195771D02*
X146924285Y-83148152D01*
X146924285Y-83148152D02*
X147114761Y-83148152D01*
X147114761Y-83148152D02*
X147209999Y-83195771D01*
X147209999Y-83195771D02*
X147257618Y-83291009D01*
X147257618Y-83291009D02*
X147257618Y-83386247D01*
X147257618Y-83386247D02*
X146781428Y-83481485D01*
X148114761Y-83814819D02*
X148114761Y-82814819D01*
X148114761Y-83767200D02*
X148019523Y-83814819D01*
X148019523Y-83814819D02*
X147829047Y-83814819D01*
X147829047Y-83814819D02*
X147733809Y-83767200D01*
X147733809Y-83767200D02*
X147686190Y-83719580D01*
X147686190Y-83719580D02*
X147638571Y-83624342D01*
X147638571Y-83624342D02*
X147638571Y-83338628D01*
X147638571Y-83338628D02*
X147686190Y-83243390D01*
X147686190Y-83243390D02*
X147733809Y-83195771D01*
X147733809Y-83195771D02*
X147829047Y-83148152D01*
X147829047Y-83148152D02*
X148019523Y-83148152D01*
X148019523Y-83148152D02*
X148114761Y-83195771D01*
X149829047Y-83814819D02*
X149352857Y-83814819D01*
X149352857Y-83814819D02*
X149352857Y-82814819D01*
X150162381Y-83291009D02*
X150495714Y-83291009D01*
X150638571Y-83814819D02*
X150162381Y-83814819D01*
X150162381Y-83814819D02*
X150162381Y-82814819D01*
X150162381Y-82814819D02*
X150638571Y-82814819D01*
X151067143Y-83814819D02*
X151067143Y-82814819D01*
X151067143Y-82814819D02*
X151305238Y-82814819D01*
X151305238Y-82814819D02*
X151448095Y-82862438D01*
X151448095Y-82862438D02*
X151543333Y-82957676D01*
X151543333Y-82957676D02*
X151590952Y-83052914D01*
X151590952Y-83052914D02*
X151638571Y-83243390D01*
X151638571Y-83243390D02*
X151638571Y-83386247D01*
X151638571Y-83386247D02*
X151590952Y-83576723D01*
X151590952Y-83576723D02*
X151543333Y-83671961D01*
X151543333Y-83671961D02*
X151448095Y-83767200D01*
X151448095Y-83767200D02*
X151305238Y-83814819D01*
X151305238Y-83814819D02*
X151067143Y-83814819D01*
D12*
%TO.C,R15*%
X160137064Y-91590000D02*
X158682936Y-91590000D01*
X160137064Y-93410000D02*
X158682936Y-93410000D01*
%TO.C,R14*%
X158682936Y-86690000D02*
X160137064Y-86690000D01*
X158682936Y-88510000D02*
X160137064Y-88510000D01*
D13*
%TO.C,U1*%
X147046189Y-92452700D02*
X150373811Y-92452700D01*
X150373811Y-87347300D02*
X147046189Y-87347300D01*
X148405200Y-87347300D02*
G75*
G03*
X149014800Y-87347300I304800J0D01*
G01*
G36*
X152875600Y-91715501D02*
G01*
X152621600Y-91715501D01*
X152621600Y-91334501D01*
X152875600Y-91334501D01*
X152875600Y-91715501D01*
G37*
D12*
%TO.C,R2*%
X134282936Y-99490000D02*
X135737064Y-99490000D01*
X134282936Y-101310000D02*
X135737064Y-101310000D01*
%TO.C,R5*%
X163237064Y-101310000D02*
X161782936Y-101310000D01*
X163237064Y-99490000D02*
X161782936Y-99490000D01*
%TO.C,R4*%
X153782936Y-99490000D02*
X155237064Y-99490000D01*
X153782936Y-101310000D02*
X155237064Y-101310000D01*
%TO.C,R7*%
X124137064Y-80310000D02*
X122682936Y-80310000D01*
X124137064Y-78490000D02*
X122682936Y-78490000D01*
%TO.C,J2*%
X173380000Y-86045000D02*
X174710000Y-86045000D01*
X173380000Y-87375000D02*
X173380000Y-86045000D01*
X173380000Y-88645000D02*
X173380000Y-93785000D01*
X173380000Y-88645000D02*
X176040000Y-88645000D01*
X173380000Y-93785000D02*
X176040000Y-93785000D01*
X176040000Y-88645000D02*
X176040000Y-93785000D01*
%TO.C,J1*%
X120650000Y-96260000D02*
X121900000Y-96260000D01*
X120950000Y-95960000D02*
X125670000Y-95960000D01*
X122260000Y-95960000D02*
X122260000Y-95350000D01*
X123560000Y-95960000D02*
X123560000Y-95350000D01*
X125670000Y-95960000D02*
X125670000Y-83840000D01*
X121560000Y-95350000D02*
X125060000Y-95350000D01*
X125060000Y-95350000D02*
X125060000Y-84450000D01*
X120650000Y-95010000D02*
X120650000Y-96260000D01*
X120750000Y-94500000D02*
X120950000Y-94500000D01*
X120750000Y-94200000D02*
X120750000Y-94500000D01*
X120850000Y-94200000D02*
X120850000Y-94500000D01*
X120950000Y-94200000D02*
X120750000Y-94200000D01*
X120950000Y-93400000D02*
X121560000Y-93400000D01*
X121560000Y-93400000D02*
X121560000Y-95350000D01*
X124560000Y-93000000D02*
X124560000Y-92800000D01*
X125060000Y-93000000D02*
X124560000Y-93000000D01*
X125060000Y-92900000D02*
X124560000Y-92900000D01*
X124560000Y-92800000D02*
X125060000Y-92800000D01*
X124560000Y-91000000D02*
X124560000Y-90800000D01*
X125060000Y-91000000D02*
X124560000Y-91000000D01*
X125060000Y-90900000D02*
X124560000Y-90900000D01*
X124560000Y-90800000D02*
X125060000Y-90800000D01*
X124560000Y-89000000D02*
X124560000Y-88800000D01*
X125060000Y-89000000D02*
X124560000Y-89000000D01*
X125060000Y-88900000D02*
X124560000Y-88900000D01*
X124560000Y-88800000D02*
X125060000Y-88800000D01*
X124560000Y-87000000D02*
X124560000Y-86800000D01*
X125060000Y-87000000D02*
X124560000Y-87000000D01*
X125060000Y-86900000D02*
X124560000Y-86900000D01*
X124560000Y-86800000D02*
X125060000Y-86800000D01*
X121560000Y-86400000D02*
X120950000Y-86400000D01*
X121560000Y-84450000D02*
X121560000Y-86400000D01*
X125060000Y-84450000D02*
X121560000Y-84450000D01*
X120950000Y-83840000D02*
X120950000Y-95960000D01*
X122260000Y-83840000D02*
X122260000Y-84450000D01*
X123560000Y-83840000D02*
X123560000Y-84450000D01*
X125670000Y-83840000D02*
X120950000Y-83840000D01*
%TO.C,R9*%
X143637064Y-80310000D02*
X142182936Y-80310000D01*
X143637064Y-78490000D02*
X142182936Y-78490000D01*
%TO.C,D2*%
X146145000Y-98855000D02*
X146145000Y-101945000D01*
X151694999Y-100400462D02*
G75*
G03*
X146145001Y-98855170I-2989999J462D01*
G01*
X146145000Y-101944830D02*
G75*
G03*
X151695000Y-100399538I2560000J1544830D01*
G01*
X151205000Y-100400000D02*
G75*
G03*
X151205000Y-100400000I-2500000J0D01*
G01*
%TO.C,R10*%
X153782936Y-78490000D02*
X155237064Y-78490000D01*
X153782936Y-80310000D02*
X155237064Y-80310000D01*
%TO.C,R8*%
X134182936Y-78490000D02*
X135637064Y-78490000D01*
X134182936Y-80310000D02*
X135637064Y-80310000D01*
%TO.C,R3*%
X143637064Y-101310000D02*
X142182936Y-101310000D01*
X143637064Y-99490000D02*
X142182936Y-99490000D01*
%TO.C,R1*%
X124037064Y-101310000D02*
X122582936Y-101310000D01*
X124037064Y-99490000D02*
X122582936Y-99490000D01*
%TO.C,D3*%
X165700000Y-98855000D02*
X165700000Y-101945000D01*
X171249999Y-100400462D02*
G75*
G03*
X165700001Y-98855170I-2989999J462D01*
G01*
X165700000Y-101944830D02*
G75*
G03*
X171250000Y-100399538I2560000J1544830D01*
G01*
X170760000Y-100400000D02*
G75*
G03*
X170760000Y-100400000I-2500000J0D01*
G01*
%TO.C,D1*%
X126595000Y-98855000D02*
X126595000Y-101945000D01*
X132144999Y-100400462D02*
G75*
G03*
X126595001Y-98855170I-2989999J462D01*
G01*
X126595000Y-101944830D02*
G75*
G03*
X132145000Y-100399538I2560000J1544830D01*
G01*
X131655000Y-100400000D02*
G75*
G03*
X131655000Y-100400000I-2500000J0D01*
G01*
%TO.C,R12*%
X173282936Y-78490000D02*
X174737064Y-78490000D01*
X173282936Y-80310000D02*
X174737064Y-80310000D01*
%TO.C,D4*%
X126595000Y-77855000D02*
X126595000Y-80945000D01*
X132144999Y-79400462D02*
G75*
G03*
X126595001Y-77855170I-2989999J462D01*
G01*
X126595000Y-80944830D02*
G75*
G03*
X132145000Y-79399538I2560000J1544830D01*
G01*
X131655000Y-79400000D02*
G75*
G03*
X131655000Y-79400000I-2500000J0D01*
G01*
%TO.C,D6*%
X165700000Y-77855000D02*
X165700000Y-80945000D01*
X171249999Y-79400462D02*
G75*
G03*
X165700001Y-77855170I-2989999J462D01*
G01*
X165700000Y-80944830D02*
G75*
G03*
X171250000Y-79399538I2560000J1544830D01*
G01*
X170760000Y-79400000D02*
G75*
G03*
X170760000Y-79400000I-2500000J0D01*
G01*
%TO.C,R13*%
X137282936Y-88090000D02*
X138737064Y-88090000D01*
X137282936Y-89910000D02*
X138737064Y-89910000D01*
%TO.C,R11*%
X163237064Y-80310000D02*
X161782936Y-80310000D01*
X163237064Y-78490000D02*
X161782936Y-78490000D01*
%TO.C,R6*%
X173382936Y-99490000D02*
X174837064Y-99490000D01*
X173382936Y-101310000D02*
X174837064Y-101310000D01*
%TO.C,D5*%
X146150000Y-77855000D02*
X146150000Y-80945000D01*
X151699999Y-79400462D02*
G75*
G03*
X146150001Y-77855170I-2989999J462D01*
G01*
X146150000Y-80944830D02*
G75*
G03*
X151700000Y-79399538I2560000J1544830D01*
G01*
X151210000Y-79400000D02*
G75*
G03*
X151210000Y-79400000I-2500000J0D01*
G01*
%TD*%
M02*
