M48
; DRILL file {KiCad 7.0.8-1.fc38} date Fri 13 Oct 2023 08:02:02 AM MDT
; FORMAT={-:-/ absolute / inch / decimal}
; #@! TF.CreationDate,2023-10-13T08:02:02-06:00
; #@! TF.GenerationSoftware,Kicad,Pcbnew,7.0.8-1.fc38
; #@! TF.FileFunction,Plated,1,2,PTH
FMAT,2
INCH
; #@! TA.AperFunction,Plated,PTH,ViaDrill
T1C0.0157
; #@! TA.AperFunction,Plated,PTH,ComponentDrill
T2C0.0295
; #@! TA.AperFunction,Plated,PTH,ComponentDrill
T3C0.0354
; #@! TA.AperFunction,Plated,PTH,ComponentDrill
T4C0.0394
%
G90
G05
T1
X5.6972Y-3.6929
X6.1028Y-3.4409
X6.1146Y-3.6575
T2
X4.8331Y-3.3819
X4.8331Y-3.4606
X4.8331Y-3.5394
X4.8331Y-3.6181
X4.8331Y-3.6969
T3
X5.0348Y-3.126
X5.0348Y-3.9528
X5.1348Y-3.126
X5.1348Y-3.9528
X5.8045Y-3.9528
X5.8047Y-3.126
X5.9045Y-3.9528
X5.9047Y-3.126
X6.5744Y-3.126
X6.5744Y-3.9528
X6.6744Y-3.126
X6.6744Y-3.9528
T4
X6.8783Y-3.44
X6.8783Y-3.54
X6.8783Y-3.64
T0
M30
