%TF.GenerationSoftware,KiCad,Pcbnew,7.0.8-1.fc38*%
%TF.CreationDate,2023-10-12T23:26:16-06:00*%
%TF.ProjectId,lightPCBV1.1,6c696768-7450-4434-9256-312e312e6b69,rev?*%
%TF.SameCoordinates,Original*%
%TF.FileFunction,Soldermask,Top*%
%TF.FilePolarity,Negative*%
%FSLAX46Y46*%
G04 Gerber Fmt 4.6, Leading zero omitted, Abs format (unit mm)*
G04 Created by KiCad (PCBNEW 7.0.8-1.fc38) date 2023-10-12 23:26:16*
%MOMM*%
%LPD*%
G01*
G04 APERTURE LIST*
G04 Aperture macros list*
%AMRoundRect*
0 Rectangle with rounded corners*
0 $1 Rounding radius*
0 $2 $3 $4 $5 $6 $7 $8 $9 X,Y pos of 4 corners*
0 Add a 4 corners polygon primitive as box body*
4,1,4,$2,$3,$4,$5,$6,$7,$8,$9,$2,$3,0*
0 Add four circle primitives for the rounded corners*
1,1,$1+$1,$2,$3*
1,1,$1+$1,$4,$5*
1,1,$1+$1,$6,$7*
1,1,$1+$1,$8,$9*
0 Add four rect primitives between the rounded corners*
20,1,$1+$1,$2,$3,$4,$5,0*
20,1,$1+$1,$4,$5,$6,$7,0*
20,1,$1+$1,$6,$7,$8,$9,0*
20,1,$1+$1,$8,$9,$2,$3,0*%
G04 Aperture macros list end*
%ADD10RoundRect,0.250000X0.400000X0.625000X-0.400000X0.625000X-0.400000X-0.625000X0.400000X-0.625000X0*%
%ADD11RoundRect,0.250000X-0.400000X-0.625000X0.400000X-0.625000X0.400000X0.625000X-0.400000X0.625000X0*%
%ADD12R,1.676400X0.355600*%
%ADD13R,1.700000X1.700000*%
%ADD14O,1.700000X1.700000*%
%ADD15RoundRect,0.250000X0.625000X-0.350000X0.625000X0.350000X-0.625000X0.350000X-0.625000X-0.350000X0*%
%ADD16O,1.750000X1.200000*%
%ADD17R,1.800000X1.800000*%
%ADD18C,1.800000*%
%ADD19C,2.200000*%
G04 APERTURE END LIST*
D10*
%TO.C,R15*%
X157860000Y-92500000D03*
X160960000Y-92500000D03*
%TD*%
D11*
%TO.C,R14*%
X157860000Y-87600000D03*
X160960000Y-87600000D03*
%TD*%
D12*
%TO.C,U1*%
X145890600Y-87625001D03*
X145890600Y-88274999D03*
X145890600Y-88925001D03*
X145890600Y-89574999D03*
X145890600Y-90224998D03*
X145890600Y-90874999D03*
X145890600Y-91524998D03*
X145890600Y-92174999D03*
X151529400Y-92174999D03*
X151529400Y-91525001D03*
X151529400Y-90874999D03*
X151529400Y-90225001D03*
X151529400Y-89575002D03*
X151529400Y-88925001D03*
X151529400Y-88275002D03*
X151529400Y-87625001D03*
%TD*%
D11*
%TO.C,R2*%
X133460000Y-100400000D03*
X136560000Y-100400000D03*
%TD*%
D10*
%TO.C,R5*%
X164060000Y-100400000D03*
X160960000Y-100400000D03*
%TD*%
D11*
%TO.C,R4*%
X152960000Y-100400000D03*
X156060000Y-100400000D03*
%TD*%
D10*
%TO.C,R7*%
X124960000Y-79400000D03*
X121860000Y-79400000D03*
%TD*%
D13*
%TO.C,J2*%
X174710000Y-87375000D03*
D14*
X174710000Y-89915000D03*
X174710000Y-92455000D03*
%TD*%
D15*
%TO.C,J1*%
X122760000Y-93900000D03*
D16*
X122760000Y-91900000D03*
X122760000Y-89900000D03*
X122760000Y-87900000D03*
X122760000Y-85900000D03*
%TD*%
D10*
%TO.C,R9*%
X144460000Y-79400000D03*
X141360000Y-79400000D03*
%TD*%
D17*
%TO.C,D2*%
X147435000Y-100400000D03*
D18*
X149975000Y-100400000D03*
%TD*%
D11*
%TO.C,R10*%
X152960000Y-79400000D03*
X156060000Y-79400000D03*
%TD*%
D19*
%TO.C,H1*%
X129210000Y-89900000D03*
%TD*%
D11*
%TO.C,R8*%
X133360000Y-79400000D03*
X136460000Y-79400000D03*
%TD*%
D10*
%TO.C,R3*%
X144460000Y-100400000D03*
X141360000Y-100400000D03*
%TD*%
%TO.C,R1*%
X124860000Y-100400000D03*
X121760000Y-100400000D03*
%TD*%
D17*
%TO.C,D3*%
X166990000Y-100400000D03*
D18*
X169530000Y-100400000D03*
%TD*%
D17*
%TO.C,D1*%
X127885000Y-100400000D03*
D18*
X130425000Y-100400000D03*
%TD*%
D11*
%TO.C,R12*%
X172460000Y-79400000D03*
X175560000Y-79400000D03*
%TD*%
D17*
%TO.C,D4*%
X127885000Y-79400000D03*
D18*
X130425000Y-79400000D03*
%TD*%
D17*
%TO.C,D6*%
X166990000Y-79400000D03*
D18*
X169530000Y-79400000D03*
%TD*%
D11*
%TO.C,R13*%
X136460000Y-89000000D03*
X139560000Y-89000000D03*
%TD*%
D10*
%TO.C,R11*%
X164060000Y-79400000D03*
X160960000Y-79400000D03*
%TD*%
D19*
%TO.C,H2*%
X168260000Y-89900000D03*
%TD*%
D11*
%TO.C,R6*%
X172560000Y-100400000D03*
X175660000Y-100400000D03*
%TD*%
D17*
%TO.C,D5*%
X147440000Y-79400000D03*
D18*
X149980000Y-79400000D03*
%TD*%
M02*
