%TF.GenerationSoftware,KiCad,Pcbnew,6.0.11-3.fc37*%
%TF.CreationDate,2023-02-25T11:33:27-07:00*%
%TF.ProjectId,lightPCB,6c696768-7450-4434-922e-6b696361645f,rev?*%
%TF.SameCoordinates,PX69db9c0PY6779420*%
%TF.FileFunction,Paste,Top*%
%TF.FilePolarity,Positive*%
%FSLAX46Y46*%
G04 Gerber Fmt 4.6, Leading zero omitted, Abs format (unit mm)*
G04 Created by KiCad (PCBNEW 6.0.11-3.fc37) date 2023-02-25 11:33:27*
%MOMM*%
%LPD*%
G01*
G04 APERTURE LIST*
G04 Aperture macros list*
%AMRoundRect*
0 Rectangle with rounded corners*
0 $1 Rounding radius*
0 $2 $3 $4 $5 $6 $7 $8 $9 X,Y pos of 4 corners*
0 Add a 4 corners polygon primitive as box body*
4,1,4,$2,$3,$4,$5,$6,$7,$8,$9,$2,$3,0*
0 Add four circle primitives for the rounded corners*
1,1,$1+$1,$2,$3*
1,1,$1+$1,$4,$5*
1,1,$1+$1,$6,$7*
1,1,$1+$1,$8,$9*
0 Add four rect primitives between the rounded corners*
20,1,$1+$1,$2,$3,$4,$5,0*
20,1,$1+$1,$4,$5,$6,$7,0*
20,1,$1+$1,$6,$7,$8,$9,0*
20,1,$1+$1,$8,$9,$2,$3,0*%
G04 Aperture macros list end*
%ADD10RoundRect,0.250000X0.625000X-0.312500X0.625000X0.312500X-0.625000X0.312500X-0.625000X-0.312500X0*%
%ADD11RoundRect,0.250000X0.312500X0.625000X-0.312500X0.625000X-0.312500X-0.625000X0.312500X-0.625000X0*%
%ADD12R,1.676400X0.355600*%
G04 APERTURE END LIST*
D10*
%TO.C,R12*%
X55000000Y24037500D03*
X55000000Y26962500D03*
%TD*%
%TO.C,R9*%
X55000000Y3037500D03*
X55000000Y5962500D03*
%TD*%
%TO.C,R1*%
X4300000Y3175000D03*
X4300000Y6100000D03*
%TD*%
%TO.C,R11*%
X35500000Y24075000D03*
X35500000Y27000000D03*
%TD*%
%TO.C,R7*%
X16000000Y3037500D03*
X16000000Y5962500D03*
%TD*%
%TO.C,R10*%
X16000000Y24037500D03*
X16000000Y26962500D03*
%TD*%
%TO.C,R4*%
X4500000Y23987500D03*
X4500000Y26912500D03*
%TD*%
%TO.C,R5*%
X24000000Y24037500D03*
X24000000Y26962500D03*
%TD*%
D11*
%TO.C,R13*%
X50962500Y11000000D03*
X48037500Y11000000D03*
%TD*%
D10*
%TO.C,R3*%
X43500000Y3037500D03*
X43500000Y5962500D03*
%TD*%
%TO.C,R2*%
X24000000Y3037500D03*
X24000000Y5962500D03*
%TD*%
D12*
%TO.C,U1*%
X26925568Y17274999D03*
X26925568Y16625001D03*
X26925568Y15974999D03*
X26925568Y15325001D03*
X26925568Y14675002D03*
X26925568Y14025001D03*
X26925568Y13375002D03*
X26925568Y12725001D03*
X32564368Y12725001D03*
X32564368Y13374999D03*
X32564368Y14025001D03*
X32564368Y14674999D03*
X32564368Y15324998D03*
X32564368Y15974999D03*
X32564368Y16624998D03*
X32564368Y17274999D03*
%TD*%
D10*
%TO.C,R6*%
X43500000Y24037500D03*
X43500000Y26962500D03*
%TD*%
%TO.C,R8*%
X35500000Y3037500D03*
X35500000Y5962500D03*
%TD*%
M02*
